<mxfile host="app.diagrams.net" modified="2021-12-05T02:56:24.077Z" agent="5.0 (Windows NT 10.0; Win64; x64) AppleWebKit/537.36 (KHTML, like Gecko) Chrome/96.0.4664.45 Safari/537.36" etag="O68a8WjwMrsUhlFEzlgr" version="15.9.1" type="github">
  <diagram id="O8fMXsPhSYHXZ5gVg-el" name="Page-1">
    <mxGraphModel dx="1038" dy="544" grid="1" gridSize="10" guides="1" tooltips="1" connect="1" arrows="1" fold="1" page="1" pageScale="1" pageWidth="827" pageHeight="1169" math="0" shadow="0">
      <root>
        <mxCell id="0" />
        <mxCell id="1" parent="0" />
        <mxCell id="E94o1vfJvXE0FjkTLuiu-6" style="edgeStyle=orthogonalEdgeStyle;rounded=0;orthogonalLoop=1;jettySize=auto;html=1;exitX=1;exitY=0.75;exitDx=0;exitDy=0;entryX=0;entryY=0.75;entryDx=0;entryDy=0;" edge="1" parent="1" source="E94o1vfJvXE0FjkTLuiu-1" target="E94o1vfJvXE0FjkTLuiu-2">
          <mxGeometry relative="1" as="geometry" />
        </mxCell>
        <mxCell id="E94o1vfJvXE0FjkTLuiu-18" style="edgeStyle=orthogonalEdgeStyle;rounded=0;orthogonalLoop=1;jettySize=auto;html=1;exitX=1;exitY=0.25;exitDx=0;exitDy=0;fontSize=23;entryX=1;entryY=0.25;entryDx=0;entryDy=0;" edge="1" parent="1" target="E94o1vfJvXE0FjkTLuiu-2">
          <mxGeometry relative="1" as="geometry">
            <mxPoint x="370" y="765" as="sourcePoint" />
          </mxGeometry>
        </mxCell>
        <mxCell id="E94o1vfJvXE0FjkTLuiu-23" style="edgeStyle=orthogonalEdgeStyle;rounded=0;orthogonalLoop=1;jettySize=auto;html=1;exitX=0.5;exitY=0;exitDx=0;exitDy=0;entryX=0.096;entryY=1.053;entryDx=0;entryDy=0;entryPerimeter=0;fontSize=23;" edge="1" parent="1" source="E94o1vfJvXE0FjkTLuiu-1" target="E94o1vfJvXE0FjkTLuiu-22">
          <mxGeometry relative="1" as="geometry" />
        </mxCell>
        <mxCell id="E94o1vfJvXE0FjkTLuiu-1" value="&lt;font style=&quot;font-size: 23px&quot;&gt;cell&lt;/font&gt;" style="rounded=0;whiteSpace=wrap;html=1;fillColor=#ffe6cc;strokeColor=#d79b00;" vertex="1" parent="1">
          <mxGeometry x="60" y="750" width="130" height="60" as="geometry" />
        </mxCell>
        <mxCell id="E94o1vfJvXE0FjkTLuiu-7" style="edgeStyle=orthogonalEdgeStyle;rounded=0;orthogonalLoop=1;jettySize=auto;html=1;exitX=0;exitY=0.25;exitDx=0;exitDy=0;entryX=1;entryY=0.25;entryDx=0;entryDy=0;" edge="1" parent="1" source="E94o1vfJvXE0FjkTLuiu-2" target="E94o1vfJvXE0FjkTLuiu-1">
          <mxGeometry relative="1" as="geometry" />
        </mxCell>
        <mxCell id="E94o1vfJvXE0FjkTLuiu-13" style="edgeStyle=orthogonalEdgeStyle;rounded=0;orthogonalLoop=1;jettySize=auto;html=1;exitX=1;exitY=0.75;exitDx=0;exitDy=0;fontSize=23;" edge="1" parent="1" source="E94o1vfJvXE0FjkTLuiu-2">
          <mxGeometry relative="1" as="geometry">
            <mxPoint x="370" y="795" as="targetPoint" />
          </mxGeometry>
        </mxCell>
        <mxCell id="E94o1vfJvXE0FjkTLuiu-24" style="edgeStyle=orthogonalEdgeStyle;rounded=0;orthogonalLoop=1;jettySize=auto;html=1;exitX=0.5;exitY=0;exitDx=0;exitDy=0;entryX=0.322;entryY=1.04;entryDx=0;entryDy=0;entryPerimeter=0;fontSize=23;" edge="1" parent="1" source="E94o1vfJvXE0FjkTLuiu-2" target="E94o1vfJvXE0FjkTLuiu-22">
          <mxGeometry relative="1" as="geometry" />
        </mxCell>
        <mxCell id="E94o1vfJvXE0FjkTLuiu-2" value="&lt;span style=&quot;font-size: 23px&quot;&gt;cell&lt;/span&gt;" style="rounded=0;whiteSpace=wrap;html=1;fillColor=#ffe6cc;strokeColor=#d79b00;" vertex="1" parent="1">
          <mxGeometry x="210" y="750" width="130" height="60" as="geometry" />
        </mxCell>
        <mxCell id="E94o1vfJvXE0FjkTLuiu-15" style="edgeStyle=orthogonalEdgeStyle;rounded=0;orthogonalLoop=1;jettySize=auto;html=1;exitX=1;exitY=0.75;exitDx=0;exitDy=0;entryX=0;entryY=0.75;entryDx=0;entryDy=0;fontSize=23;" edge="1" parent="1" source="E94o1vfJvXE0FjkTLuiu-8" target="E94o1vfJvXE0FjkTLuiu-11">
          <mxGeometry relative="1" as="geometry" />
        </mxCell>
        <mxCell id="E94o1vfJvXE0FjkTLuiu-20" style="edgeStyle=orthogonalEdgeStyle;rounded=0;orthogonalLoop=1;jettySize=auto;html=1;exitX=0;exitY=0.25;exitDx=0;exitDy=0;fontSize=23;" edge="1" parent="1" source="E94o1vfJvXE0FjkTLuiu-8">
          <mxGeometry relative="1" as="geometry">
            <mxPoint x="420" y="765" as="targetPoint" />
          </mxGeometry>
        </mxCell>
        <mxCell id="E94o1vfJvXE0FjkTLuiu-21" style="edgeStyle=orthogonalEdgeStyle;rounded=0;orthogonalLoop=1;jettySize=auto;html=1;exitX=0;exitY=0.75;exitDx=0;exitDy=0;fontSize=23;entryX=0;entryY=0.75;entryDx=0;entryDy=0;" edge="1" parent="1" target="E94o1vfJvXE0FjkTLuiu-8">
          <mxGeometry relative="1" as="geometry">
            <mxPoint x="420" y="795" as="sourcePoint" />
          </mxGeometry>
        </mxCell>
        <mxCell id="E94o1vfJvXE0FjkTLuiu-25" style="edgeStyle=orthogonalEdgeStyle;rounded=0;orthogonalLoop=1;jettySize=auto;html=1;exitX=0.5;exitY=0;exitDx=0;exitDy=0;entryX=0.679;entryY=1.04;entryDx=0;entryDy=0;entryPerimeter=0;fontSize=23;" edge="1" parent="1" source="E94o1vfJvXE0FjkTLuiu-8" target="E94o1vfJvXE0FjkTLuiu-22">
          <mxGeometry relative="1" as="geometry" />
        </mxCell>
        <mxCell id="E94o1vfJvXE0FjkTLuiu-8" value="&lt;span style=&quot;font-size: 23px&quot;&gt;cell&lt;/span&gt;" style="rounded=0;whiteSpace=wrap;html=1;fillColor=#ffe6cc;strokeColor=#d79b00;" vertex="1" parent="1">
          <mxGeometry x="450" y="750" width="130" height="60" as="geometry" />
        </mxCell>
        <mxCell id="E94o1vfJvXE0FjkTLuiu-16" style="edgeStyle=orthogonalEdgeStyle;rounded=0;orthogonalLoop=1;jettySize=auto;html=1;exitX=0;exitY=0.25;exitDx=0;exitDy=0;entryX=1;entryY=0.25;entryDx=0;entryDy=0;fontSize=23;" edge="1" parent="1" source="E94o1vfJvXE0FjkTLuiu-11" target="E94o1vfJvXE0FjkTLuiu-8">
          <mxGeometry relative="1" as="geometry" />
        </mxCell>
        <mxCell id="E94o1vfJvXE0FjkTLuiu-26" style="edgeStyle=orthogonalEdgeStyle;rounded=0;orthogonalLoop=1;jettySize=auto;html=1;exitX=0.5;exitY=0;exitDx=0;exitDy=0;entryX=0.904;entryY=1.053;entryDx=0;entryDy=0;entryPerimeter=0;fontSize=23;" edge="1" parent="1" source="E94o1vfJvXE0FjkTLuiu-11" target="E94o1vfJvXE0FjkTLuiu-22">
          <mxGeometry relative="1" as="geometry" />
        </mxCell>
        <mxCell id="E94o1vfJvXE0FjkTLuiu-11" value="&lt;span style=&quot;font-size: 23px&quot;&gt;cell&lt;/span&gt;" style="rounded=0;whiteSpace=wrap;html=1;fillColor=#ffe6cc;strokeColor=#d79b00;" vertex="1" parent="1">
          <mxGeometry x="600" y="750" width="130" height="60" as="geometry" />
        </mxCell>
        <mxCell id="E94o1vfJvXE0FjkTLuiu-12" value="&lt;b&gt;&lt;font style=&quot;font-size: 23px&quot;&gt;...&lt;/font&gt;&lt;/b&gt;" style="text;html=1;strokeColor=none;fillColor=none;align=center;verticalAlign=middle;whiteSpace=wrap;rounded=0;" vertex="1" parent="1">
          <mxGeometry x="370" y="760" width="60" height="30" as="geometry" />
        </mxCell>
        <mxCell id="E94o1vfJvXE0FjkTLuiu-41" style="edgeStyle=orthogonalEdgeStyle;rounded=0;orthogonalLoop=1;jettySize=auto;html=1;exitX=0.5;exitY=0;exitDx=0;exitDy=0;entryX=0.481;entryY=1.02;entryDx=0;entryDy=0;entryPerimeter=0;fontSize=23;fontColor=#000000;" edge="1" parent="1" source="E94o1vfJvXE0FjkTLuiu-22" target="E94o1vfJvXE0FjkTLuiu-40">
          <mxGeometry relative="1" as="geometry" />
        </mxCell>
        <mxCell id="E94o1vfJvXE0FjkTLuiu-22" value="&lt;font color=&quot;#000000&quot;&gt;CRF&lt;/font&gt;" style="rounded=0;whiteSpace=wrap;html=1;fontSize=23;fillColor=#1ba1e2;strokeColor=#006EAF;fontColor=#ffffff;" vertex="1" parent="1">
          <mxGeometry x="60" y="640" width="670" height="60" as="geometry" />
        </mxCell>
        <mxCell id="E94o1vfJvXE0FjkTLuiu-32" style="edgeStyle=orthogonalEdgeStyle;rounded=0;orthogonalLoop=1;jettySize=auto;html=1;exitX=0.5;exitY=0;exitDx=0;exitDy=0;entryX=0.5;entryY=1;entryDx=0;entryDy=0;fontSize=23;fontColor=#000000;" edge="1" parent="1" source="E94o1vfJvXE0FjkTLuiu-28" target="E94o1vfJvXE0FjkTLuiu-1">
          <mxGeometry relative="1" as="geometry" />
        </mxCell>
        <mxCell id="E94o1vfJvXE0FjkTLuiu-61" style="edgeStyle=orthogonalEdgeStyle;rounded=0;orthogonalLoop=1;jettySize=auto;html=1;exitX=0.086;exitY=0.033;exitDx=0;exitDy=0;entryX=0.5;entryY=1;entryDx=0;entryDy=0;fontSize=23;fontColor=#000000;exitPerimeter=0;" edge="1" parent="1" source="E94o1vfJvXE0FjkTLuiu-43" target="E94o1vfJvXE0FjkTLuiu-28">
          <mxGeometry relative="1" as="geometry" />
        </mxCell>
        <mxCell id="E94o1vfJvXE0FjkTLuiu-28" value="x&lt;span style=&quot;font-size: 19.1667px&quot;&gt;&lt;sub&gt;1&lt;/sub&gt;&lt;/span&gt;" style="rounded=1;whiteSpace=wrap;html=1;fontSize=23;fillColor=#d5e8d4;strokeColor=#82b366;" vertex="1" parent="1">
          <mxGeometry x="75" y="850" width="100" height="40" as="geometry" />
        </mxCell>
        <mxCell id="E94o1vfJvXE0FjkTLuiu-33" style="edgeStyle=orthogonalEdgeStyle;rounded=0;orthogonalLoop=1;jettySize=auto;html=1;exitX=0.5;exitY=0;exitDx=0;exitDy=0;entryX=0.5;entryY=1;entryDx=0;entryDy=0;fontSize=23;fontColor=#000000;" edge="1" parent="1" source="E94o1vfJvXE0FjkTLuiu-29" target="E94o1vfJvXE0FjkTLuiu-2">
          <mxGeometry relative="1" as="geometry" />
        </mxCell>
        <mxCell id="E94o1vfJvXE0FjkTLuiu-62" style="edgeStyle=orthogonalEdgeStyle;rounded=0;orthogonalLoop=1;jettySize=auto;html=1;exitX=0.311;exitY=0.007;exitDx=0;exitDy=0;entryX=0.5;entryY=1;entryDx=0;entryDy=0;fontSize=23;fontColor=#000000;exitPerimeter=0;" edge="1" parent="1" source="E94o1vfJvXE0FjkTLuiu-43" target="E94o1vfJvXE0FjkTLuiu-29">
          <mxGeometry relative="1" as="geometry" />
        </mxCell>
        <mxCell id="E94o1vfJvXE0FjkTLuiu-29" value="x&lt;span style=&quot;font-size: 19.1667px&quot;&gt;&lt;sub&gt;2&lt;/sub&gt;&lt;/span&gt;" style="rounded=1;whiteSpace=wrap;html=1;fontSize=23;fillColor=#d5e8d4;strokeColor=#82b366;" vertex="1" parent="1">
          <mxGeometry x="225" y="850" width="100" height="40" as="geometry" />
        </mxCell>
        <mxCell id="E94o1vfJvXE0FjkTLuiu-34" style="edgeStyle=orthogonalEdgeStyle;rounded=0;orthogonalLoop=1;jettySize=auto;html=1;exitX=0.5;exitY=0;exitDx=0;exitDy=0;entryX=0.5;entryY=1;entryDx=0;entryDy=0;fontSize=23;fontColor=#000000;" edge="1" parent="1" source="E94o1vfJvXE0FjkTLuiu-30" target="E94o1vfJvXE0FjkTLuiu-8">
          <mxGeometry relative="1" as="geometry" />
        </mxCell>
        <mxCell id="E94o1vfJvXE0FjkTLuiu-63" style="edgeStyle=orthogonalEdgeStyle;rounded=0;orthogonalLoop=1;jettySize=auto;html=1;exitX=0.675;exitY=-0.033;exitDx=0;exitDy=0;entryX=0.5;entryY=1;entryDx=0;entryDy=0;fontSize=23;fontColor=#000000;exitPerimeter=0;" edge="1" parent="1" source="E94o1vfJvXE0FjkTLuiu-43" target="E94o1vfJvXE0FjkTLuiu-30">
          <mxGeometry relative="1" as="geometry" />
        </mxCell>
        <mxCell id="E94o1vfJvXE0FjkTLuiu-30" value="x&lt;span style=&quot;font-size: 19.1667px&quot;&gt;&lt;sub&gt;n-1&lt;/sub&gt;&lt;/span&gt;" style="rounded=1;whiteSpace=wrap;html=1;fontSize=23;fillColor=#d5e8d4;strokeColor=#82b366;" vertex="1" parent="1">
          <mxGeometry x="465" y="850" width="100" height="40" as="geometry" />
        </mxCell>
        <mxCell id="E94o1vfJvXE0FjkTLuiu-36" style="edgeStyle=orthogonalEdgeStyle;rounded=0;orthogonalLoop=1;jettySize=auto;html=1;exitX=0.5;exitY=0;exitDx=0;exitDy=0;entryX=0.5;entryY=1;entryDx=0;entryDy=0;fontSize=23;fontColor=#000000;" edge="1" parent="1" source="E94o1vfJvXE0FjkTLuiu-31" target="E94o1vfJvXE0FjkTLuiu-11">
          <mxGeometry relative="1" as="geometry" />
        </mxCell>
        <mxCell id="E94o1vfJvXE0FjkTLuiu-64" style="edgeStyle=orthogonalEdgeStyle;rounded=0;orthogonalLoop=1;jettySize=auto;html=1;exitX=0.892;exitY=0.02;exitDx=0;exitDy=0;entryX=0.5;entryY=1;entryDx=0;entryDy=0;fontSize=23;fontColor=#000000;exitPerimeter=0;" edge="1" parent="1" source="E94o1vfJvXE0FjkTLuiu-43" target="E94o1vfJvXE0FjkTLuiu-31">
          <mxGeometry relative="1" as="geometry" />
        </mxCell>
        <mxCell id="E94o1vfJvXE0FjkTLuiu-31" value="x&lt;span style=&quot;font-size: 19.1667px&quot;&gt;&lt;sub&gt;n&lt;/sub&gt;&lt;/span&gt;" style="rounded=1;whiteSpace=wrap;html=1;fontSize=23;fillColor=#d5e8d4;strokeColor=#82b366;" vertex="1" parent="1">
          <mxGeometry x="615" y="850" width="100" height="40" as="geometry" />
        </mxCell>
        <mxCell id="E94o1vfJvXE0FjkTLuiu-66" style="edgeStyle=orthogonalEdgeStyle;rounded=0;orthogonalLoop=1;jettySize=auto;html=1;exitX=0.489;exitY=-0.007;exitDx=0;exitDy=0;fontSize=23;fontColor=#000000;exitPerimeter=0;" edge="1" parent="1" source="E94o1vfJvXE0FjkTLuiu-43">
          <mxGeometry relative="1" as="geometry">
            <mxPoint x="395" y="890" as="targetPoint" />
          </mxGeometry>
        </mxCell>
        <mxCell id="E94o1vfJvXE0FjkTLuiu-72" style="edgeStyle=orthogonalEdgeStyle;rounded=0;orthogonalLoop=1;jettySize=auto;html=1;exitX=0.5;exitY=0;exitDx=0;exitDy=0;fontSize=23;fontColor=#000000;" edge="1" parent="1" source="E94o1vfJvXE0FjkTLuiu-39">
          <mxGeometry relative="1" as="geometry">
            <mxPoint x="395" y="810" as="targetPoint" />
          </mxGeometry>
        </mxCell>
        <mxCell id="E94o1vfJvXE0FjkTLuiu-39" value="&lt;b&gt;&lt;font style=&quot;font-size: 23px&quot;&gt;...&lt;/font&gt;&lt;/b&gt;" style="text;html=1;strokeColor=none;fillColor=none;align=center;verticalAlign=middle;whiteSpace=wrap;rounded=0;" vertex="1" parent="1">
          <mxGeometry x="365" y="850" width="60" height="30" as="geometry" />
        </mxCell>
        <mxCell id="E94o1vfJvXE0FjkTLuiu-40" value="B-TOPIC M-TOPIC&amp;nbsp;I-TOPIC" style="rounded=0;whiteSpace=wrap;html=1;fontSize=23;fontColor=#000000;dashed=1;" vertex="1" parent="1">
          <mxGeometry x="67.5" y="520" width="665" height="80" as="geometry" />
        </mxCell>
        <mxCell id="E94o1vfJvXE0FjkTLuiu-43" value="&lt;font color=&quot;#000000&quot;&gt;RAE&lt;/font&gt;" style="rounded=0;whiteSpace=wrap;html=1;fontSize=23;fillColor=#1ba1e2;strokeColor=#006EAF;fontColor=#ffffff;" vertex="1" parent="1">
          <mxGeometry x="67.5" y="930" width="670" height="60" as="geometry" />
        </mxCell>
        <mxCell id="E94o1vfJvXE0FjkTLuiu-59" style="edgeStyle=orthogonalEdgeStyle;rounded=0;orthogonalLoop=1;jettySize=auto;html=1;exitX=0.5;exitY=0;exitDx=0;exitDy=0;entryX=0.5;entryY=1;entryDx=0;entryDy=0;fontSize=23;fontColor=#000000;" edge="1" parent="1" source="E94o1vfJvXE0FjkTLuiu-44" target="E94o1vfJvXE0FjkTLuiu-50">
          <mxGeometry relative="1" as="geometry" />
        </mxCell>
        <mxCell id="E94o1vfJvXE0FjkTLuiu-44" value="&lt;sub&gt;&lt;span style=&quot;font-size: 23px&quot;&gt;S&lt;/span&gt;&lt;span style=&quot;font-size: 19.1667px&quot;&gt;1&lt;/span&gt;&lt;/sub&gt;" style="rounded=1;whiteSpace=wrap;html=1;fontSize=23;fillColor=#d5e8d4;strokeColor=#82b366;" vertex="1" parent="1">
          <mxGeometry x="72.5" y="1060" width="100" height="40" as="geometry" />
        </mxCell>
        <mxCell id="E94o1vfJvXE0FjkTLuiu-60" style="edgeStyle=orthogonalEdgeStyle;rounded=0;orthogonalLoop=1;jettySize=auto;html=1;exitX=0.5;exitY=0;exitDx=0;exitDy=0;entryX=0.081;entryY=0.987;entryDx=0;entryDy=0;entryPerimeter=0;fontSize=23;fontColor=#000000;" edge="1" parent="1" source="E94o1vfJvXE0FjkTLuiu-50" target="E94o1vfJvXE0FjkTLuiu-43">
          <mxGeometry relative="1" as="geometry" />
        </mxCell>
        <mxCell id="E94o1vfJvXE0FjkTLuiu-50" value="" style="shape=orEllipse;perimeter=ellipsePerimeter;whiteSpace=wrap;html=1;backgroundOutline=1;fontSize=23;fontColor=#000000;strokeWidth=1;perimeterSpacing=0;" vertex="1" parent="1">
          <mxGeometry x="112.5" y="1020.77" width="20" height="20.77" as="geometry" />
        </mxCell>
        <mxCell id="E94o1vfJvXE0FjkTLuiu-58" style="edgeStyle=orthogonalEdgeStyle;rounded=0;orthogonalLoop=1;jettySize=auto;html=1;exitX=1;exitY=0.5;exitDx=0;exitDy=0;entryX=0;entryY=0.5;entryDx=0;entryDy=0;fontSize=23;fontColor=#000000;" edge="1" parent="1" source="E94o1vfJvXE0FjkTLuiu-53" target="E94o1vfJvXE0FjkTLuiu-50">
          <mxGeometry relative="1" as="geometry" />
        </mxCell>
        <mxCell id="E94o1vfJvXE0FjkTLuiu-53" value="" style="shape=image;verticalLabelPosition=bottom;labelBackgroundColor=#ffffff;verticalAlign=top;aspect=fixed;imageAspect=0;image=data:image/png,iVBORw0KGgoAAAANSUhEUgAAAHAAAABtCAYAAAB5qOUOAAAgAElEQVR4nO1deXRTZfp+7s2+NEnTfaMb3bClFBFFCrRKLYgwgCOIC4PK4Iy4Ho9Hhh+KZ5AZ92046ODIHNBSj4gKQkGmOk5ZSkuxZacLdIOmS0q3NEmz3Pf3R03k9qZla6FBn3Pu6UlIwvd9z7e837syRES4znA1wWq14siRIygsLMS+fftQVVWF9vZ2dHR0oKurC06nU/CdwQDDMO6/CoUCWq0WOp0O4eHhSElJwZQpU5CZmQmFQgGWZd2fHw5grjeBDocD3d3d2LFjBwoKClBSUgKDwYDz58/DarVez6ZBLBbDx8cH/v7+SE5OxoQJE5CVlYWkpCRIpdJhQeR1IZCIYLPZYLFY8Omnn+K7777DyZMnYTQaYTKZwHHcgN8Xi8XQaDRQKBRQKpWQyWSQy+WIjY2FWq3ud2AbGxtRX1+Pnp4eWK1WmM1mmEwmWCyWi65omUwGvV6PmJgYpKenY+bMmUhNTYVSqQTLslc8FleLa06gzWZDWVkZ8vPzsWfPHhw/fhxNTU2w2Wz9fkcsFiMgIACBgYEIDg7GLbfcguDgYGg0Gmg0GqjVaqjVavj7+0MikfT7OyaTCUajEd3d3ejq6kJ7eztaW1uxd+9eNDY2wmg0orW1Fd3d3QO2RavVIjY2FpMmTcKMGTNw8803w8fH57qsyGtGoNPpRHNzM3bv3o2cnBwcP34cLS0tsNvtHj8vlUoRFBSE2NhY3HHHHYiNjUVgYCACAgIQHBwMqVQKsVgMsVgMkUjkfgYCEcHhcMDpdMLpdMLhcMBut6OpqQnNzc1oaWnBmTNnsH//ftTU1KC2thZdXV0eV6dIJIJWq0VCQgImT56M2bNnIzk5GSqV6poSOeQEEhFaW1tRWFiIL774AsXFxairq0NPT49gYFiWhV6vR1JSErKzs3HTTTchNDQUUVFRUCqVkEgkkEgkg75lERHsdjvsdjssFgsMBgOamppQVlaGwsJCHD58GHV1dR4nm0QigVarRUpKCiZNmoQFCxYgLi7uopNpsDCkBHIch+LiYuTm5mLfvn2oqKhAd3e34IwTiUQIDQ1Feno6Jk+ejLS0NERHR8PHxwcSiQRisXiomthvux0OBzo7O9HU1ASDwYDvv/8e//3vf1FSUsKThl1wnZHp6el4+OGHkZ6eDp1ON+SrccgIbG9vx/bt2/Hpp5+itLQUbW1tcDgcgs8FBgZizpw5+P3vf4+IiAgEBQVBrVZDJBINCymP4zg4nU60tLTg3Llz+Oabb5CXl4cjR44IJiLDMFAqlYiPj8eECRPw/PPPIzo6emj7QUOAyspK+uMf/0ijRo0ihUJBDMMQAN6j0+lo/vz5lJ+fT9XV1WSz2cjpdA5FcwYFHMeRw+GghoYGKiwspOXLl9NNN91ELMsK+iYSiUiv19O9995LeXl5ZLVah6xdg07gnj17aNq0aeTr60sikUjQOalUSlOmTKG8vDyqqKggu91OHMcNdjOGFA6HgwwGA+3du5f+/Oc/U2hoqGCSMgxDKpWKxo8fT2+//TZ1dHQMSVsGjUCTyUTr16+nCRMmkFwu53WIYRgSi8WUkpJCq1evprKyMrLZbF5HXF84HA6qra2lHTt2UFZWFvn4+AhWpEQiocjISHr++eepsbFx0HeZqyaQ4zhqb2+nv/71r5SYmEgSicTjdvLggw9SQUEBtbS0DOut8krQ09NDZWVltGLFCo9jwDAM+fn50SOPPEKVlZWD2v+rIpDjOGppaaFVq1ZRdHS0YMuUSCSUlpZGr7/+Op08eZLsdvtgtXvYwel0ksFgoK1bt1JGRgapVCrB8aHRaGjRokWDSuIVE8hxHNXX19OyZcsoKiqKxGIxb8YpFArKzMykb7/9lpqbm2+4VdcfzGYzFRUV0UMPPURarVZwNmq1Wnr00UepqqpqUMbkigh0rbzly5dTWFiYYOUplUqaP38+FRQUUHd391U30ttgt9upvLycXnvtNRoxYsSQknjZBHIcR0ajkV577TWKjY31SN6CBQuorKxsSMXn4Q6O46i5uZk++eQTio6OFpCo0+nokUceuWoSL5tAm81Gb731FiUkJAgOa51OR48//jgdPnz4hj7vLgdtbW20ceNGSk1NFUioWq2WFi5cSOfOnbtiifyyCOQ4jnbu3EnJyckeyXv22WepvLz8N/L6oKOjg7766isaM2aMgESNRkPPPPMMtbe3X9FvXzKBHMdRcXExTZo0iaRSqeByvnTpUqqsrCSHw3FFDbnR0dXVRZ9//jnFxMQIttPAwEB6/fXXr0heuGQCa2tradq0aSSXywXkzZs3j44fP/4beRdBR0cHrV+/nqKiongksixLiYmJtHXr1svevS6JQKvVSo8++igplUrB3Wb69OlUUlJCNpvtijr1a0NbWxt98MEHFBAQwCNRIpHQ1KlT6fjx45cl1FyUQI7jaNOmTYL/kGVZmjJlCu3bt496enquqlO/NjQ2NtLChQvJx8eHN6Y+Pj706KOPUlNT0yULNQMSyHEcHT16lG699VbedYFlWYqPj6dt27b9qq8KVwqO46isrIxmzJhBCoWCpwAJDQ2l3NzcS97RBiSwtbWVFi9eLFALBQQE0Msvv0znz5+/5JniMsdc+PxatDOeYLfbKT8/n8aMGcPTYolEIsrMzKSSkpJLkin6NXUTEX744Qfk5+fDYrG435fJZLjzzjvx0EMPQavVejRWOp1Ot4uCywfl3LlzOHnyJM95SS6XY8qUKRCLxW7Lu+vvcDDmDiXEYjFuv/12LFq0CKtWrcL58+dBRHA6nSgpKcHGjRsRFRUFvV4/4Fj0S2B9fT02bNgAg8HgtjyLRCKMGTMGTz31FKKjo3m+KS7/zu7ubvz44484c+YM6uvr0dzcDKPRCLPZjI6ODp4fDMuyCAoKglKpRHBwMMLCwhAVFYWxY8ciJibG7VJxo5KpUCgwf/58FBQUYNu2bW6PBZPJhF27duGee+5BRkbGgJ52Hgl0OBzYvXs3Dh48yFsxKpUK8+fPx5gxY9x+KjabDU1NTSgsLERhYSHKy8tRWVkJk8kEs9mMnp4e9PT09NuAqqoqiEQiyOVyt59nREQEkpOTkZiY6PZIU6lUVzRIwx1BQUF48cUXcejQIdTV1YF6jzXU1NTg008/RUpKCoKCgvqfxJ721TNnztC0adN42haxWEzTpk2jM2fOEMdxZLfbqaKigtavX0/z5s2jUaNGkV6vF1zyr+QRi8Wk1WopPDycpk2bRitWrKDS0lIym82DeQwNG9hsNlq2bJlg7MLCwuibb74ZUMoXEGiz2eif//wnBQUF8URcvV5PX375JfX09FBNTQ1t2LCB5s6dS/Hx8aRSqTz6hgzGI5fLKTAwkLKzs+nVV191T6AbDZWVlZSWlsYbR5FIRPPmzaPm5uZ++yzYQpuamvDVV1+5D1UXpk6divT0dOTn5yMnJwelpaWora2F1Wrt1xXe5VEdHh6OgIAA+Pn58Rxfm5qa0NXVhaqqKhgMBo+xEFarFVarFT/++CNOnDiB8vJy3H///Zg8eTLUarXnbcULER0djUWLFuGll15CZ2cngF5h8H//+x+KioqQnZ3t8SzkuRU6HA5s3LgRL774IlpbW90EyuVyfPTRRzAajdi8eTOOHz8Os9ncL3FpaWkYP348brnlFne8glwuh1wu5zXCYrHAbrejs7PT7eL+008/ud0QyYPjr4+PDxISEvC73/0OixcvRkBAwA0j5Jw7dw6LFy9Gfn6+W6BhWRYLFy7Eu+++C51OJ/zShcuxtbWV5s6dy7uXAKCMjAyaPn06RUZGCqwQrker1dLs2bPpo48+ooMHD1JNTQ11dnaS0+kkjuMGfJxOJ9lsNjp37hwdOXKEtm3bRosXL/bo7YWf1U4RERH09NNPX5UpZrjB4XDQunXreJd7ABQUFES7d+/2qCd1E8hxHH355ZcUFhbmUVuuVCoF74vFYtLpdPTAAw/Qrl276NSpU9TZ2XlVA8pxnPuc/f777+nZZ5+liIgIEovFAlWen58fLViwgE6fPn3DKAXOnj1LkydP5mm+GIahpUuXkslkEnzeTaDZbKYnn3zykqRIhmFIqVTS1KlTad26dVReXj4klgiHw0Fnz56lrVu3UmZmJmk0GsEkUqlUdP/991NNTc0NQaLdbqd//OMfpFaref2Mi4ujxsZGweIA0S8OSqNHj76oNMmyLAUGBtKSJUuoqKiI2tvbh3wLs1gsdOjQIfq///s/jzuEWq2mpUuXDonf5bUGx3EeJVKJREI5OTkCHSmIel3iNm7cKGC97yMWi2nMmDH07rvvUmVl5TW1vDudTjp37hytWbOGYmNjBSTq9XpasWIFtbW1ef2ZaLFYaMWKFYKzcM6cOdTV1cX7LIh6HVMfe+wxgfDSd+XdfPPN9PXXX19X59zW1lb65JNPKCEhQbBbRERE0Lp167zeNslxHBUVFQk82sLCwgRCG4h6D86UlBSPEp/rSUhIoG3btnk8SK81zp8/T5988onAPYFlWRo3bhxVVVV5/So0GAx055138oQZsVhMn3/+OW+CskSEkpIS1NTU9BsnrtfrsWTJEmRmZg4LnaROp8Ps2bPxzDPPIDAw0H0P5DgOR48exVtvvQWz2XydW3l10Ol0uOuuu3j3ZpeO+sIwPdYVhNlfRgipVIr58+dj/vz5w4I8oDcOz9fXF3PnzkVGRgakUqn733p6erBlyxYcOHDAYyCmt0Amk+HWW28VmOwKCgr4BBIRfvrpp361Kunp6XjiiScQEhIyrDQeDMMgODgYS5YswU033cQzbRmNRvzrX//i2TG9DQzDIDQ0FBEREbxxd5noXLsly3Ecjh075pHA8PBwvPTSS0hISLiuqTT6g1gsxm233YbHHnuMZ/gkIhQUFKCoqMirV6FOp0NYWBhv7O12O4qLi39RtR08eJCn93SBYRh3Co1rHaN+OVAqlZg6dapgkhmNRuzatctjWLe3QKfTITMzk3cOEhFKS0vdE5M9fPiwx1kaExODJUuWQKlUDqut0xOioqLw4IMP8lah3W7Hf/7zH9TU1Fw0cdBwhUQiwahRo+Dr68vj4MyZM+4+sRe+cEEsFmPOnDmIj4+/ZukyrgZSqRQZGRk8Nw8iwtmzZz0mI/Am6HQ6niBDRKiqqvplBR49elTQwdDQUNx3331QKBTXvMFXipiYGGRmZkIul7vfM5lMOHTokFefgz4+PoIsUI2NjW5fJdblh3EhUlNTBU5Lwx0ymQzjxo2DRqNxd9Zms+HAgQMez3hvgVarhVar5b1ns9nckijb2NjI65xIJEJ6evqASeOGK+Lj43kEEhEMBgMaGhq8lkCNRiOQRB0OB5qamnoJ7JtkTi6X45ZbbuFdjr0F0dHRgs6aTCZ3Z70RCoVCIGE7nU6cOHECBoMB4r7nn06ng5+fn9etPgBQq9VISkpCYWGh+/pgsVg8umd4C1iWFSTQs9ls+Pbbb1FdXQ1x347p9XooFAqvJJBhGISEhPDurT09Pejs7PRaAoFeQUahULjVnU6nE0ePHkV5ebmQQK1WC5lMdj3aOSgICQlxe3MTEXp6emAymbyaQLVa7c4QTD87/rq89di+HZNKpV4lffaFTCbj7R6uOA1vxkCTj+1Lllar9UoBxoXhkst6MGEymTzmVwUAwVKTyWTDWvd5MXjaPRwOh1dvoTabrV+drqC3rj3WW+HpCDh27NiAebCHM4gI3d3d/WqT2L7bjclk8uozIzQ0VLCDGAwGr5VEbTYbTpw4wVuBDMO4E697JHCgDPLDHaGhoQIdbkdHh9feBdvb23H27Fle2yUSCTIzM/HGG2+A7Rsw0dXV5dUr0N/fX6CNaWtrg9Fo9EoCDQYDL8gW6CVwypQpyMrKAnuhUxDQO1v7k3i8ARKJRGAGa2trw7Fjx7xuYnIch8OHD8NgMPD4EIvFiI+P7y0FFBYWxiNwOJS8uVqMGzeOR6ArPM3bVqHJZMLevXsF57cryz/LsmBHjBjBI7CzsxMnTpzwahva7bffziPQ5W7YdyYPdzQ2NqK0tFSwc6hUKreTGZuYmCjQdJeVlXn1Khw5ciSSkpJ4/WpsbMR3333nNdeJnp4e7Nq1C9XV1bxJxzAM4uLi3ApuNjY2VqC5qK6u9upzUKFQYNasWbzrhNVqxZYtW7xmFRqNRnz55Zcerz8jR4507zDsxIkTBQ67p0+f9mqfSgBYuHAhgoODecbdU6dOITc3FyaT6Tq3bmBYLBasX78eR44cERxlDMPwhDQ2KChI4D5RWVkpyOnibYiIiMDChQt5lpWenh5s2LABu3fvHrZ3XafTiW3btuGzzz7zWHiLYRiMHz/+FwJZlkVaWhqPQLPZjK1bt3r1OcgwDBYvXizwVKutrcXHH3+MlpaWYeetRj8XCvv444/7dYfU6XQ8Cz3LMAwyMjIE6qeCggKvJhDo9SxftGgRfHx83O9xHId9+/bhww8/HFbqNSJCe3s7Xn31VRQXF/e7Q6SlpfEt9EREdXV1FB4ezgvVCg0NpZMnT3p1xCvHcVRXV0fZ2dmC0PHg4GB6//33qbOz83o3k4iIOjs7afny5YK0nn2fVatW8TJEgqg3Pn7atGmCWLR33nnH69NJOhwO+vrrr2nUqFGCgNC4uDh6//33r3vMY1tbG61evbrfrByuR61WU1FREW9Rgag3sH7lypWCFCKZmZlDVrTpWqK9vZ3ef/99CgkJEQSEjhw5ktauXXtNYv37wul0UkNDAy1fvpwiIiIGJA8ApaenU2trK+833DHye/bsEWyjOp2ODh486PW5sDmOo4aGBlq5ciXp9XoBiUlJSfS3v/2NDAbDNSPRZrPRrl276PHHH/eYuKG/7dNisfB+x51mxGg00qxZswT5SZ5++mnBl7wRHMdReXk5zZ07V5DMQSQSUVRUFD333HO0b9++Ia024zqX161bR3fccQf5+fldUp65oKAgj0lg3QTa7XbavHkz+fr68r4YGRlJJ06c8PqYc6LeWb9nzx66++67BQncXelTMjMz6e9//zsdOXJkUJMluHaB3NxcWrRoESUlJXksjimRSAS5tAHQ7Nmz6fz584Lf5aXaqq2tpfHjxwsy5q1cufKGSWxutVpp79699MADDwgSBzEMQ1KplCIjIyk7O5veeOMNKioquioiOY6j2tpa2rBhAz300EOUmppKOp1OULKIYRjy9/en9PR0wQ4hk8lo586dHtvBS3ZnsVjwl7/8BWvXruVpwKOiovDjjz+ir+XCW2Gz2VBdXY2cnBysWbMG7e3tgkzCYrEYwcHB7uSzaWlpSE5ORkpKCu9e2R/OnDmD0tJSHDp0CGVlZaiurkZDQwMsFgucTqfAPJSQkIAFCxagpKQEeXl5vPGfOHEitmzZgr62W6BPtkIiwv79+7FkyRKcOnXqlyBClsVf//pXvPDCC17tctgXBoMBu3fvxptvvonq6mpBZguGYcCyLJRKJfz8/KDX6+Hv74+QkBD4+/u7XzMMA7PZjObmZnc9+tbWVhiNRrS0tKCjowMcx3mMw3Qp3h944AE0Nzfj5Zdf5rlQSCQSrFy5Es899xyUSqWwE32XZGdnJz3xxBOCLEFxcXF08OBBr77Ye0JXVxfl5+fTCy+8QJGRkR6Lm6DPVqdQKMjX15eCg4MpKiqKoqOjKSIigvz9/S8p+a1IJCKdTkczZsyg9957j06ePEmdnZ107733CpItpaWlUVlZWb83AQGBHMfRDz/8ILj4SqVSeuGFF27ItMd2u53q6upo8+bN9MQTT1B8fDxpNJpBz0Isk8koNDSUpk+fTqtXr6affvqJWltbyel0Uk5OjkALo1KpaNWqVYL0WhdC4MHLMAzGjh2LrKws1NfXo6urC0BvzPnWrVsxadIkTJ8+3audf/tCLBYjIiIC/v7+GDt2LKZOnYoTJ06guLgYR48eRVNT04CZiS/22wEBAQgMDERqaiomTpyIcePGISwsDAEBAWBZFtXV1Vi7di0vS7LLyDBz5swBI6U9sqDRaNzp8F02Kfo5k/q6deswatQoxMTE3BACzYVQKBSIjo5GSEgIJk6ciLvvvhunTp1CfX09Dhw4gLNnz6Krqwutra1wOBzo6uri+Wv6+PhAKpXCx8cHarUaAQEBmDRpEkaMGIGwsDBER0cjKCgIGo3GbU2w2+3YtGkT+iab8PPzw3333ccz3nqCRwIZhsHo0aMxa9Ys1NbWun0q7XY7CgsL8c033+BPf/rTsMncNJhgGAYKhQIKhQJ+fn6Ii4uD1WpFdnY2Wltb0dXVhba2NnedjAsJVKlUkMlkUKlUUKlU0Ov1iI6OhlKphEwmE8RtcByH7777Djk5OTwBSiqVYubMmRddfQCEQowLHMdRVVUVzZw5k6fJF4lENHbsWNq2bZvXZwW8HDidTurp6SGz2UxdXV3U2dlJbW1tdP78effT0dFBnZ2d1N3dTRaL5aLpOE+ePEn33HOPoKRfTEwM7dix45LGd8DaSU6nk7Zs2ULh4eG8A10ul9Pdd99N+/fv/61a5xWio6ODli9fTv7+/jzBRaPR0LJly6ilpeWStF8XLT/X1tZGzz77LMlkMp4o7Sri6ykN8G8YGFarlT7++GNKSEjgaWQkEglNmjSJDh06dMkGhEsqAHn69GmaMGECbxUyDEPBwcH05ptvDijm/gY+nE4nffHFFzRu3DiPRubc3NzLsk9eEoEcx9G3334rMDexLEsxMTH0wQcf/CrrxV8uHA4H5eXl0ZQpU0gul7vHkmEYUqlU9Morr5DRaLysHe2Sa+h2d3fTmjVrSKfTCTQTUVFRtHbt2hvC7DRUsNvttH37dsrMzBSUcBCLxfSHP/yBamtrL1vTdVllyFtaWmj58uUCEgFQYmIi5ebm/kaiB9hsNtqxYwdlZmYKVJQsy9Ktt95Khw4duiI15WXXka+traUnn3ySdDodbxaJRCJKTU2ltWvX/radXgAXeXfccYdAzyoSiSgpKYny8vKu2Fx3WQQS9ZJYUVFBTz75JPn6+gpIjI6OpjVr1vwm2FCvtLl9+/Z+yRs9ejR99tlnVzXhL5tAol5J6tSpU/T0008LSMTPlov33nuPWltbf7VXDKvVSuvXr6eMjAyP5KWlpVFOTs5V17m4IgKJekksLy+np556SkCiy9vrlVdeodOnT//qLvvt7e304YcfUkpKikDL4tJk5ebmDkqRkismkOgXEpcuXSo4E1mWpYiICHrwwQdpx44dN6QZqi+cTidVVVXRqlWrKDExUWDbc5G3adOmQaswc1UEuhrtIlGj0QiuGBqNhiZPnkxr166l6urqG84g7ILZbKavvvqKHn74YYqMjBT4vMjlcpowYcKgrTwXrppAol4SKysradmyZR5JlMlklJCQQA8//DDt3r37hnGQIuq9nB8/fpxef/11uu2220ir1QoMwQqFgu666y7avn37oDsQDwqBRL9UQHvnnXc83hNFIhFpNBq6/fbbafXq1XTs2DGvdxi2Wq3073//m+bMmUNRUVEklUo9lsd76qmnqKioiLq7uwddqBs0Al0wGo20ceNGGjt2rMBVn2EYkkgkFBYWRpmZmfT2229TfX29V22rHMe54y0ef/xxSkxMJKVSKVh1IpGIgoOD6bXXXqOqqqohm6yDTiBRr9pt//79tGTJEtLr9YLDnGEYEolEFB4eTnfddRe99957VF1dTQ6HY1heO1ylYh0OB23ZsoUWLVpEycnJpFarBcS59Jp33nknff755wNWoB4M8NwKBxNEhDNnziAvLw87duxAYWEhTCaTwK+EZVmEhYUhJSUFGRkZmDFjBmJjYyEWi8Gy7HV12yAiOBwO1NbWYt++fdi/fz/279/fbwi6XC5HSEgI7r33XsybNw/JyclDnvl/yAgE4A5arKqqwqZNm7Bz50536fK+kEgkCAwMREJCAkaPHo1x48YhPT0dAQEBkEqlEIlE14RMp9MJh8MBu92OiooK7N69G3v37kVFRQUaGhpgNpsFQaEikQiBgYGYOnUqsrOzkZ6ejoiIiGuSd3VICXTB6XSirq4OxcXF2LlzJ/bv34/a2lqPUagikQg+Pj4IDAxEYmKi+8nMzIRGo4FMJhvUlJgusmw2Gzo6OnDw4EFUVla6n9OnT8NoNPbbVr1ej4kTJyIrKwsZGRkYMWKEIMf1UOKaEAj0rkaz2Yz6+nocOXIE27dvx4EDB3D69Ol+3fWkUik0Gg10Oh2io6MRFRWF8PBwxMbGYty4cW4yJRIJxGKxO9Vyf3CR5fprtVpx4MAB1NfXo7GxEbW1taisrER7ezs6OjpgsVg8to1lWfj6+iI9PR1ZWVmYMGECoqOjodVqr3m242tGoAsuImtra3Hy5Els3rzZHTswUOYIlmWhVquhUqnctRR8fHyg1Wqh0WigUqmgVqsHXJnd3d3o6uqCyWSC2WxGS0sL6uvr3a/NZjN6enoGbH9oaCjS0tIwa9Ys3HzzzYiJiYFGo7luJYquOYEu0M+Ju0+fPo2amhpUVlZi69atOHXqFK8+Xn9wBaBIpdIrWoEOh+OSnXWVSiUiIyMxduxYzJgxAyNHjkRCQgJUKtV1ry113Qh0geM42O12mM1mnDp1ChUVFfjhhx9QXl6O8vLy65avRi6XIyIiAqmpqcjKykJkZCRGjBiByMhIyGSy606cC9edwAvhdDphNpvR0NAAo9GI8vJylJaWoqKiAhUVFairqxuy3C4sy0Kr1SIuLg7x8fGYMGEC4uLiEBISgsjISMjlcojF4mHnjT6sCHSBfs7b3d3djfPnz7ufjo4OtwTb2NiIs2fPoqWl5YoS2IWHh0Ov1yM8PBwxMTEYOXIkYmNj3WFkwcHBUKvV1/0uejEMSwL7wtVEIkJDQwM6OzvR3d0Nk8kEi8UCu90Oo9F40RpJCoUC4eHh7vgFuVzuFoR0Oh2vzNtwJu1C/D+aFVk4TP4AAAACSURBVIH86miqhwAAAABJRU5ErkJggg==;" vertex="1" parent="1">
          <mxGeometry x="52.5" y="1011.54" width="40.31" height="39.23" as="geometry" />
        </mxCell>
        <mxCell id="E94o1vfJvXE0FjkTLuiu-79" style="edgeStyle=orthogonalEdgeStyle;rounded=0;orthogonalLoop=1;jettySize=auto;html=1;exitX=0.5;exitY=0;exitDx=0;exitDy=0;entryX=0.5;entryY=1;entryDx=0;entryDy=0;fontSize=23;fontColor=#000000;" edge="1" parent="1" source="E94o1vfJvXE0FjkTLuiu-80" target="E94o1vfJvXE0FjkTLuiu-82">
          <mxGeometry relative="1" as="geometry" />
        </mxCell>
        <mxCell id="E94o1vfJvXE0FjkTLuiu-80" value="&lt;sub&gt;&lt;span style=&quot;font-size: 23px&quot;&gt;S&lt;/span&gt;&lt;span style=&quot;font-size: 19.1667px&quot;&gt;2&lt;/span&gt;&lt;/sub&gt;" style="rounded=1;whiteSpace=wrap;html=1;fontSize=23;fillColor=#d5e8d4;strokeColor=#82b366;" vertex="1" parent="1">
          <mxGeometry x="225" y="1060" width="100" height="40" as="geometry" />
        </mxCell>
        <mxCell id="E94o1vfJvXE0FjkTLuiu-81" style="edgeStyle=orthogonalEdgeStyle;rounded=0;orthogonalLoop=1;jettySize=auto;html=1;exitX=0.5;exitY=0;exitDx=0;exitDy=0;entryX=0.081;entryY=0.987;entryDx=0;entryDy=0;entryPerimeter=0;fontSize=23;fontColor=#000000;" edge="1" parent="1" source="E94o1vfJvXE0FjkTLuiu-82">
          <mxGeometry relative="1" as="geometry">
            <mxPoint x="274.27" y="989.22" as="targetPoint" />
          </mxGeometry>
        </mxCell>
        <mxCell id="E94o1vfJvXE0FjkTLuiu-82" value="" style="shape=orEllipse;perimeter=ellipsePerimeter;whiteSpace=wrap;html=1;backgroundOutline=1;fontSize=23;fontColor=#000000;strokeWidth=1;perimeterSpacing=0;" vertex="1" parent="1">
          <mxGeometry x="265" y="1020.77" width="20" height="20.77" as="geometry" />
        </mxCell>
        <mxCell id="E94o1vfJvXE0FjkTLuiu-83" style="edgeStyle=orthogonalEdgeStyle;rounded=0;orthogonalLoop=1;jettySize=auto;html=1;exitX=1;exitY=0.5;exitDx=0;exitDy=0;entryX=0;entryY=0.5;entryDx=0;entryDy=0;fontSize=23;fontColor=#000000;" edge="1" parent="1" source="E94o1vfJvXE0FjkTLuiu-84" target="E94o1vfJvXE0FjkTLuiu-82">
          <mxGeometry relative="1" as="geometry" />
        </mxCell>
        <mxCell id="E94o1vfJvXE0FjkTLuiu-84" value="" style="shape=image;verticalLabelPosition=bottom;labelBackgroundColor=#ffffff;verticalAlign=top;aspect=fixed;imageAspect=0;image=data:image/png,iVBORw0KGgoAAAANSUhEUgAAAHAAAABtCAYAAAB5qOUOAAAgAElEQVR4nO1deXRTZfp+7s2+NEnTfaMb3bClFBFFCrRKLYgwgCOIC4PK4Iy4Ho9Hhh+KZ5AZ92046ODIHNBSj4gKQkGmOk5ZSkuxZacLdIOmS0q3NEmz3Pf3R03k9qZla6FBn3Pu6UlIwvd9z7e837syRES4znA1wWq14siRIygsLMS+fftQVVWF9vZ2dHR0oKurC06nU/CdwQDDMO6/CoUCWq0WOp0O4eHhSElJwZQpU5CZmQmFQgGWZd2fHw5grjeBDocD3d3d2LFjBwoKClBSUgKDwYDz58/DarVez6ZBLBbDx8cH/v7+SE5OxoQJE5CVlYWkpCRIpdJhQeR1IZCIYLPZYLFY8Omnn+K7777DyZMnYTQaYTKZwHHcgN8Xi8XQaDRQKBRQKpWQyWSQy+WIjY2FWq3ud2AbGxtRX1+Pnp4eWK1WmM1mmEwmWCyWi65omUwGvV6PmJgYpKenY+bMmUhNTYVSqQTLslc8FleLa06gzWZDWVkZ8vPzsWfPHhw/fhxNTU2w2Wz9fkcsFiMgIACBgYEIDg7GLbfcguDgYGg0Gmg0GqjVaqjVavj7+0MikfT7OyaTCUajEd3d3ejq6kJ7eztaW1uxd+9eNDY2wmg0orW1Fd3d3QO2RavVIjY2FpMmTcKMGTNw8803w8fH57qsyGtGoNPpRHNzM3bv3o2cnBwcP34cLS0tsNvtHj8vlUoRFBSE2NhY3HHHHYiNjUVgYCACAgIQHBwMqVQKsVgMsVgMkUjkfgYCEcHhcMDpdMLpdMLhcMBut6OpqQnNzc1oaWnBmTNnsH//ftTU1KC2thZdXV0eV6dIJIJWq0VCQgImT56M2bNnIzk5GSqV6poSOeQEEhFaW1tRWFiIL774AsXFxairq0NPT49gYFiWhV6vR1JSErKzs3HTTTchNDQUUVFRUCqVkEgkkEgkg75lERHsdjvsdjssFgsMBgOamppQVlaGwsJCHD58GHV1dR4nm0QigVarRUpKCiZNmoQFCxYgLi7uopNpsDCkBHIch+LiYuTm5mLfvn2oqKhAd3e34IwTiUQIDQ1Feno6Jk+ejLS0NERHR8PHxwcSiQRisXiomthvux0OBzo7O9HU1ASDwYDvv/8e//3vf1FSUsKThl1wnZHp6el4+OGHkZ6eDp1ON+SrccgIbG9vx/bt2/Hpp5+itLQUbW1tcDgcgs8FBgZizpw5+P3vf4+IiAgEBQVBrVZDJBINCymP4zg4nU60tLTg3Llz+Oabb5CXl4cjR44IJiLDMFAqlYiPj8eECRPw/PPPIzo6emj7QUOAyspK+uMf/0ijRo0ihUJBDMMQAN6j0+lo/vz5lJ+fT9XV1WSz2cjpdA5FcwYFHMeRw+GghoYGKiwspOXLl9NNN91ELMsK+iYSiUiv19O9995LeXl5ZLVah6xdg07gnj17aNq0aeTr60sikUjQOalUSlOmTKG8vDyqqKggu91OHMcNdjOGFA6HgwwGA+3du5f+/Oc/U2hoqGCSMgxDKpWKxo8fT2+//TZ1dHQMSVsGjUCTyUTr16+nCRMmkFwu53WIYRgSi8WUkpJCq1evprKyMrLZbF5HXF84HA6qra2lHTt2UFZWFvn4+AhWpEQiocjISHr++eepsbFx0HeZqyaQ4zhqb2+nv/71r5SYmEgSicTjdvLggw9SQUEBtbS0DOut8krQ09NDZWVltGLFCo9jwDAM+fn50SOPPEKVlZWD2v+rIpDjOGppaaFVq1ZRdHS0YMuUSCSUlpZGr7/+Op08eZLsdvtgtXvYwel0ksFgoK1bt1JGRgapVCrB8aHRaGjRokWDSuIVE8hxHNXX19OyZcsoKiqKxGIxb8YpFArKzMykb7/9lpqbm2+4VdcfzGYzFRUV0UMPPURarVZwNmq1Wnr00UepqqpqUMbkigh0rbzly5dTWFiYYOUplUqaP38+FRQUUHd391U30ttgt9upvLycXnvtNRoxYsSQknjZBHIcR0ajkV577TWKjY31SN6CBQuorKxsSMXn4Q6O46i5uZk++eQTio6OFpCo0+nokUceuWoSL5tAm81Gb731FiUkJAgOa51OR48//jgdPnz4hj7vLgdtbW20ceNGSk1NFUioWq2WFi5cSOfOnbtiifyyCOQ4jnbu3EnJyckeyXv22WepvLz8N/L6oKOjg7766isaM2aMgESNRkPPPPMMtbe3X9FvXzKBHMdRcXExTZo0iaRSqeByvnTpUqqsrCSHw3FFDbnR0dXVRZ9//jnFxMQIttPAwEB6/fXXr0heuGQCa2tradq0aSSXywXkzZs3j44fP/4beRdBR0cHrV+/nqKiongksixLiYmJtHXr1svevS6JQKvVSo8++igplUrB3Wb69OlUUlJCNpvtijr1a0NbWxt98MEHFBAQwCNRIpHQ1KlT6fjx45cl1FyUQI7jaNOmTYL/kGVZmjJlCu3bt496enquqlO/NjQ2NtLChQvJx8eHN6Y+Pj706KOPUlNT0yULNQMSyHEcHT16lG699VbedYFlWYqPj6dt27b9qq8KVwqO46isrIxmzJhBCoWCpwAJDQ2l3NzcS97RBiSwtbWVFi9eLFALBQQE0Msvv0znz5+/5JniMsdc+PxatDOeYLfbKT8/n8aMGcPTYolEIsrMzKSSkpJLkin6NXUTEX744Qfk5+fDYrG435fJZLjzzjvx0EMPQavVejRWOp1Ot4uCywfl3LlzOHnyJM95SS6XY8qUKRCLxW7Lu+vvcDDmDiXEYjFuv/12LFq0CKtWrcL58+dBRHA6nSgpKcHGjRsRFRUFvV4/4Fj0S2B9fT02bNgAg8HgtjyLRCKMGTMGTz31FKKjo3m+KS7/zu7ubvz44484c+YM6uvr0dzcDKPRCLPZjI6ODp4fDMuyCAoKglKpRHBwMMLCwhAVFYWxY8ciJibG7VJxo5KpUCgwf/58FBQUYNu2bW6PBZPJhF27duGee+5BRkbGgJ52Hgl0OBzYvXs3Dh48yFsxKpUK8+fPx5gxY9x+KjabDU1NTSgsLERhYSHKy8tRWVkJk8kEs9mMnp4e9PT09NuAqqoqiEQiyOVyt59nREQEkpOTkZiY6PZIU6lUVzRIwx1BQUF48cUXcejQIdTV1YF6jzXU1NTg008/RUpKCoKCgvqfxJ721TNnztC0adN42haxWEzTpk2jM2fOEMdxZLfbqaKigtavX0/z5s2jUaNGkV6vF1zyr+QRi8Wk1WopPDycpk2bRitWrKDS0lIym82DeQwNG9hsNlq2bJlg7MLCwuibb74ZUMoXEGiz2eif//wnBQUF8URcvV5PX375JfX09FBNTQ1t2LCB5s6dS/Hx8aRSqTz6hgzGI5fLKTAwkLKzs+nVV191T6AbDZWVlZSWlsYbR5FIRPPmzaPm5uZ++yzYQpuamvDVV1+5D1UXpk6divT0dOTn5yMnJwelpaWora2F1Wrt1xXe5VEdHh6OgIAA+Pn58Rxfm5qa0NXVhaqqKhgMBo+xEFarFVarFT/++CNOnDiB8vJy3H///Zg8eTLUarXnbcULER0djUWLFuGll15CZ2cngF5h8H//+x+KioqQnZ3t8SzkuRU6HA5s3LgRL774IlpbW90EyuVyfPTRRzAajdi8eTOOHz8Os9ncL3FpaWkYP348brnlFne8glwuh1wu5zXCYrHAbrejs7PT7eL+008/ud0QyYPjr4+PDxISEvC73/0OixcvRkBAwA0j5Jw7dw6LFy9Gfn6+W6BhWRYLFy7Eu+++C51OJ/zShcuxtbWV5s6dy7uXAKCMjAyaPn06RUZGCqwQrker1dLs2bPpo48+ooMHD1JNTQ11dnaS0+kkjuMGfJxOJ9lsNjp37hwdOXKEtm3bRosXL/bo7YWf1U4RERH09NNPX5UpZrjB4XDQunXreJd7ABQUFES7d+/2qCd1E8hxHH355ZcUFhbmUVuuVCoF74vFYtLpdPTAAw/Qrl276NSpU9TZ2XlVA8pxnPuc/f777+nZZ5+liIgIEovFAlWen58fLViwgE6fPn3DKAXOnj1LkydP5mm+GIahpUuXkslkEnzeTaDZbKYnn3zykqRIhmFIqVTS1KlTad26dVReXj4klgiHw0Fnz56lrVu3UmZmJmk0GsEkUqlUdP/991NNTc0NQaLdbqd//OMfpFaref2Mi4ujxsZGweIA0S8OSqNHj76oNMmyLAUGBtKSJUuoqKiI2tvbh3wLs1gsdOjQIfq///s/jzuEWq2mpUuXDonf5bUGx3EeJVKJREI5OTkCHSmIel3iNm7cKGC97yMWi2nMmDH07rvvUmVl5TW1vDudTjp37hytWbOGYmNjBSTq9XpasWIFtbW1ef2ZaLFYaMWKFYKzcM6cOdTV1cX7LIh6HVMfe+wxgfDSd+XdfPPN9PXXX19X59zW1lb65JNPKCEhQbBbRERE0Lp167zeNslxHBUVFQk82sLCwgRCG4h6D86UlBSPEp/rSUhIoG3btnk8SK81zp8/T5988onAPYFlWRo3bhxVVVV5/So0GAx055138oQZsVhMn3/+OW+CskSEkpIS1NTU9BsnrtfrsWTJEmRmZg4LnaROp8Ps2bPxzDPPIDAw0H0P5DgOR48exVtvvQWz2XydW3l10Ol0uOuuu3j3ZpeO+sIwPdYVhNlfRgipVIr58+dj/vz5w4I8oDcOz9fXF3PnzkVGRgakUqn733p6erBlyxYcOHDAYyCmt0Amk+HWW28VmOwKCgr4BBIRfvrpp361Kunp6XjiiScQEhIyrDQeDMMgODgYS5YswU033cQzbRmNRvzrX//i2TG9DQzDIDQ0FBEREbxxd5noXLsly3Ecjh075pHA8PBwvPTSS0hISLiuqTT6g1gsxm233YbHHnuMZ/gkIhQUFKCoqMirV6FOp0NYWBhv7O12O4qLi39RtR08eJCn93SBYRh3Co1rHaN+OVAqlZg6dapgkhmNRuzatctjWLe3QKfTITMzk3cOEhFKS0vdE5M9fPiwx1kaExODJUuWQKlUDqut0xOioqLw4IMP8lah3W7Hf/7zH9TU1Fw0cdBwhUQiwahRo+Dr68vj4MyZM+4+sRe+cEEsFmPOnDmIj4+/ZukyrgZSqRQZGRk8Nw8iwtmzZz0mI/Am6HQ6niBDRKiqqvplBR49elTQwdDQUNx3331QKBTXvMFXipiYGGRmZkIul7vfM5lMOHTokFefgz4+PoIsUI2NjW5fJdblh3EhUlNTBU5Lwx0ymQzjxo2DRqNxd9Zms+HAgQMez3hvgVarhVar5b1ns9nckijb2NjI65xIJEJ6evqASeOGK+Lj43kEEhEMBgMaGhq8lkCNRiOQRB0OB5qamnoJ7JtkTi6X45ZbbuFdjr0F0dHRgs6aTCZ3Z70RCoVCIGE7nU6cOHECBoMB4r7nn06ng5+fn9etPgBQq9VISkpCYWGh+/pgsVg8umd4C1iWFSTQs9ls+Pbbb1FdXQ1x347p9XooFAqvJJBhGISEhPDurT09Pejs7PRaAoFeQUahULjVnU6nE0ePHkV5ebmQQK1WC5lMdj3aOSgICQlxe3MTEXp6emAymbyaQLVa7c4QTD87/rq89di+HZNKpV4lffaFTCbj7R6uOA1vxkCTj+1Lllar9UoBxoXhkst6MGEymTzmVwUAwVKTyWTDWvd5MXjaPRwOh1dvoTabrV+drqC3rj3WW+HpCDh27NiAebCHM4gI3d3d/WqT2L7bjclk8uozIzQ0VLCDGAwGr5VEbTYbTpw4wVuBDMO4E697JHCgDPLDHaGhoQIdbkdHh9feBdvb23H27Fle2yUSCTIzM/HGG2+A7Rsw0dXV5dUr0N/fX6CNaWtrg9Fo9EoCDQYDL8gW6CVwypQpyMrKAnuhUxDQO1v7k3i8ARKJRGAGa2trw7Fjx7xuYnIch8OHD8NgMPD4EIvFiI+P7y0FFBYWxiNwOJS8uVqMGzeOR6ArPM3bVqHJZMLevXsF57cryz/LsmBHjBjBI7CzsxMnTpzwahva7bffziPQ5W7YdyYPdzQ2NqK0tFSwc6hUKreTGZuYmCjQdJeVlXn1Khw5ciSSkpJ4/WpsbMR3333nNdeJnp4e7Nq1C9XV1bxJxzAM4uLi3ApuNjY2VqC5qK6u9upzUKFQYNasWbzrhNVqxZYtW7xmFRqNRnz55Zcerz8jR4507zDsxIkTBQ67p0+f9mqfSgBYuHAhgoODecbdU6dOITc3FyaT6Tq3bmBYLBasX78eR44cERxlDMPwhDQ2KChI4D5RWVkpyOnibYiIiMDChQt5lpWenh5s2LABu3fvHrZ3XafTiW3btuGzzz7zWHiLYRiMHz/+FwJZlkVaWhqPQLPZjK1bt3r1OcgwDBYvXizwVKutrcXHH3+MlpaWYeetRj8XCvv444/7dYfU6XQ8Cz3LMAwyMjIE6qeCggKvJhDo9SxftGgRfHx83O9xHId9+/bhww8/HFbqNSJCe3s7Xn31VRQXF/e7Q6SlpfEt9EREdXV1FB4ezgvVCg0NpZMnT3p1xCvHcVRXV0fZ2dmC0PHg4GB6//33qbOz83o3k4iIOjs7afny5YK0nn2fVatW8TJEgqg3Pn7atGmCWLR33nnH69NJOhwO+vrrr2nUqFGCgNC4uDh6//33r3vMY1tbG61evbrfrByuR61WU1FREW9Rgag3sH7lypWCFCKZmZlDVrTpWqK9vZ3ef/99CgkJEQSEjhw5ktauXXtNYv37wul0UkNDAy1fvpwiIiIGJA8ApaenU2trK+833DHye/bsEWyjOp2ODh486PW5sDmOo4aGBlq5ciXp9XoBiUlJSfS3v/2NDAbDNSPRZrPRrl276PHHH/eYuKG/7dNisfB+x51mxGg00qxZswT5SZ5++mnBl7wRHMdReXk5zZ07V5DMQSQSUVRUFD333HO0b9++Ia024zqX161bR3fccQf5+fldUp65oKAgj0lg3QTa7XbavHkz+fr68r4YGRlJJ06c8PqYc6LeWb9nzx66++67BQncXelTMjMz6e9//zsdOXJkUJMluHaB3NxcWrRoESUlJXksjimRSAS5tAHQ7Nmz6fz584Lf5aXaqq2tpfHjxwsy5q1cufKGSWxutVpp79699MADDwgSBzEMQ1KplCIjIyk7O5veeOMNKioquioiOY6j2tpa2rBhAz300EOUmppKOp1OULKIYRjy9/en9PR0wQ4hk8lo586dHtvBS3ZnsVjwl7/8BWvXruVpwKOiovDjjz+ir+XCW2Gz2VBdXY2cnBysWbMG7e3tgkzCYrEYwcHB7uSzaWlpSE5ORkpKCu9e2R/OnDmD0tJSHDp0CGVlZaiurkZDQwMsFgucTqfAPJSQkIAFCxagpKQEeXl5vPGfOHEitmzZgr62W6BPtkIiwv79+7FkyRKcOnXqlyBClsVf//pXvPDCC17tctgXBoMBu3fvxptvvonq6mpBZguGYcCyLJRKJfz8/KDX6+Hv74+QkBD4+/u7XzMMA7PZjObmZnc9+tbWVhiNRrS0tKCjowMcx3mMw3Qp3h944AE0Nzfj5Zdf5rlQSCQSrFy5Es899xyUSqWwE32XZGdnJz3xxBOCLEFxcXF08OBBr77Ye0JXVxfl5+fTCy+8QJGRkR6Lm6DPVqdQKMjX15eCg4MpKiqKoqOjKSIigvz9/S8p+a1IJCKdTkczZsyg9957j06ePEmdnZ107733CpItpaWlUVlZWb83AQGBHMfRDz/8ILj4SqVSeuGFF27ItMd2u53q6upo8+bN9MQTT1B8fDxpNJpBz0Isk8koNDSUpk+fTqtXr6affvqJWltbyel0Uk5OjkALo1KpaNWqVYL0WhdC4MHLMAzGjh2LrKws1NfXo6urC0BvzPnWrVsxadIkTJ8+3audf/tCLBYjIiIC/v7+GDt2LKZOnYoTJ06guLgYR48eRVNT04CZiS/22wEBAQgMDERqaiomTpyIcePGISwsDAEBAWBZFtXV1Vi7di0vS7LLyDBz5swBI6U9sqDRaNzp8F02Kfo5k/q6deswatQoxMTE3BACzYVQKBSIjo5GSEgIJk6ciLvvvhunTp1CfX09Dhw4gLNnz6Krqwutra1wOBzo6uri+Wv6+PhAKpXCx8cHarUaAQEBmDRpEkaMGIGwsDBER0cjKCgIGo3GbU2w2+3YtGkT+iab8PPzw3333ccz3nqCRwIZhsHo0aMxa9Ys1NbWun0q7XY7CgsL8c033+BPf/rTsMncNJhgGAYKhQIKhQJ+fn6Ii4uD1WpFdnY2Wltb0dXVhba2NnedjAsJVKlUkMlkUKlUUKlU0Ov1iI6OhlKphEwmE8RtcByH7777Djk5OTwBSiqVYubMmRddfQCEQowLHMdRVVUVzZw5k6fJF4lENHbsWNq2bZvXZwW8HDidTurp6SGz2UxdXV3U2dlJbW1tdP78effT0dFBnZ2d1N3dTRaL5aLpOE+ePEn33HOPoKRfTEwM7dix45LGd8DaSU6nk7Zs2ULh4eG8A10ul9Pdd99N+/fv/61a5xWio6ODli9fTv7+/jzBRaPR0LJly6ilpeWStF8XLT/X1tZGzz77LMlkMp4o7Sri6ykN8G8YGFarlT7++GNKSEjgaWQkEglNmjSJDh06dMkGhEsqAHn69GmaMGECbxUyDEPBwcH05ptvDijm/gY+nE4nffHFFzRu3DiPRubc3NzLsk9eEoEcx9G3334rMDexLEsxMTH0wQcf/CrrxV8uHA4H5eXl0ZQpU0gul7vHkmEYUqlU9Morr5DRaLysHe2Sa+h2d3fTmjVrSKfTCTQTUVFRtHbt2hvC7DRUsNvttH37dsrMzBSUcBCLxfSHP/yBamtrL1vTdVllyFtaWmj58uUCEgFQYmIi5ebm/kaiB9hsNtqxYwdlZmYKVJQsy9Ktt95Khw4duiI15WXXka+traUnn3ySdDodbxaJRCJKTU2ltWvX/radXgAXeXfccYdAzyoSiSgpKYny8vKu2Fx3WQQS9ZJYUVFBTz75JPn6+gpIjI6OpjVr1vwm2FCvtLl9+/Z+yRs9ejR99tlnVzXhL5tAol5J6tSpU/T0008LSMTPlov33nuPWltbf7VXDKvVSuvXr6eMjAyP5KWlpVFOTs5V17m4IgKJekksLy+np556SkCiy9vrlVdeodOnT//qLvvt7e304YcfUkpKikDL4tJk5ebmDkqRkismkOgXEpcuXSo4E1mWpYiICHrwwQdpx44dN6QZqi+cTidVVVXRqlWrKDExUWDbc5G3adOmQaswc1UEuhrtIlGj0QiuGBqNhiZPnkxr166l6urqG84g7ILZbKavvvqKHn74YYqMjBT4vMjlcpowYcKgrTwXrppAol4SKysradmyZR5JlMlklJCQQA8//DDt3r37hnGQIuq9nB8/fpxef/11uu2220ir1QoMwQqFgu666y7avn37oDsQDwqBRL9UQHvnnXc83hNFIhFpNBq6/fbbafXq1XTs2DGvdxi2Wq3073//m+bMmUNRUVEklUo9lsd76qmnqKioiLq7uwddqBs0Al0wGo20ceNGGjt2rMBVn2EYkkgkFBYWRpmZmfT2229TfX29V22rHMe54y0ef/xxSkxMJKVSKVh1IpGIgoOD6bXXXqOqqqohm6yDTiBRr9pt//79tGTJEtLr9YLDnGEYEolEFB4eTnfddRe99957VF1dTQ6HY1heO1ylYh0OB23ZsoUWLVpEycnJpFarBcS59Jp33nknff755wNWoB4M8NwKBxNEhDNnziAvLw87duxAYWEhTCaTwK+EZVmEhYUhJSUFGRkZmDFjBmJjYyEWi8Gy7HV12yAiOBwO1NbWYt++fdi/fz/279/fbwi6XC5HSEgI7r33XsybNw/JyclDnvl/yAgE4A5arKqqwqZNm7Bz50536fK+kEgkCAwMREJCAkaPHo1x48YhPT0dAQEBkEqlEIlE14RMp9MJh8MBu92OiooK7N69G3v37kVFRQUaGhpgNpsFQaEikQiBgYGYOnUqsrOzkZ6ejoiIiGuSd3VICXTB6XSirq4OxcXF2LlzJ/bv34/a2lqPUagikQg+Pj4IDAxEYmKi+8nMzIRGo4FMJhvUlJgusmw2Gzo6OnDw4EFUVla6n9OnT8NoNPbbVr1ej4kTJyIrKwsZGRkYMWKEIMf1UOKaEAj0rkaz2Yz6+nocOXIE27dvx4EDB3D69Ol+3fWkUik0Gg10Oh2io6MRFRWF8PBwxMbGYty4cW4yJRIJxGKxO9Vyf3CR5fprtVpx4MAB1NfXo7GxEbW1taisrER7ezs6OjpgsVg8to1lWfj6+iI9PR1ZWVmYMGECoqOjodVqr3m242tGoAsuImtra3Hy5Els3rzZHTswUOYIlmWhVquhUqnctRR8fHyg1Wqh0WigUqmgVqsHXJnd3d3o6uqCyWSC2WxGS0sL6uvr3a/NZjN6enoGbH9oaCjS0tIwa9Ys3HzzzYiJiYFGo7luJYquOYEu0M+Ju0+fPo2amhpUVlZi69atOHXqFK8+Xn9wBaBIpdIrWoEOh+OSnXWVSiUiIyMxduxYzJgxAyNHjkRCQgJUKtV1ry113Qh0geM42O12mM1mnDp1ChUVFfjhhx9QXl6O8vLy65avRi6XIyIiAqmpqcjKykJkZCRGjBiByMhIyGSy606cC9edwAvhdDphNpvR0NAAo9GI8vJylJaWoqKiAhUVFairqxuy3C4sy0Kr1SIuLg7x8fGYMGEC4uLiEBISgsjISMjlcojF4mHnjT6sCHSBfs7b3d3djfPnz7ufjo4OtwTb2NiIs2fPoqWl5YoS2IWHh0Ov1yM8PBwxMTEYOXIkYmNj3WFkwcHBUKvV1/0uejEMSwL7wtVEIkJDQwM6OzvR3d0Nk8kEi8UCu90Oo9F40RpJCoUC4eHh7vgFuVzuFoR0Oh2vzNtwJu1C/D+aFVk4TP4AAAACSURBVIH86miqhwAAAABJRU5ErkJggg==;" vertex="1" parent="1">
          <mxGeometry x="205" y="1011.54" width="40.31" height="39.23" as="geometry" />
        </mxCell>
        <mxCell id="E94o1vfJvXE0FjkTLuiu-85" style="edgeStyle=orthogonalEdgeStyle;rounded=0;orthogonalLoop=1;jettySize=auto;html=1;exitX=0.5;exitY=0;exitDx=0;exitDy=0;entryX=0.5;entryY=1;entryDx=0;entryDy=0;fontSize=23;fontColor=#000000;" edge="1" parent="1" source="E94o1vfJvXE0FjkTLuiu-86" target="E94o1vfJvXE0FjkTLuiu-88">
          <mxGeometry relative="1" as="geometry" />
        </mxCell>
        <mxCell id="E94o1vfJvXE0FjkTLuiu-86" value="&lt;sub&gt;&lt;span style=&quot;font-size: 23px&quot;&gt;S&lt;/span&gt;&lt;span style=&quot;font-size: 19.1667px&quot;&gt;n-1&lt;/span&gt;&lt;/sub&gt;" style="rounded=1;whiteSpace=wrap;html=1;fontSize=23;fillColor=#d5e8d4;strokeColor=#82b366;" vertex="1" parent="1">
          <mxGeometry x="465" y="1060.78" width="100" height="40" as="geometry" />
        </mxCell>
        <mxCell id="E94o1vfJvXE0FjkTLuiu-87" style="edgeStyle=orthogonalEdgeStyle;rounded=0;orthogonalLoop=1;jettySize=auto;html=1;exitX=0.5;exitY=0;exitDx=0;exitDy=0;entryX=0.081;entryY=0.987;entryDx=0;entryDy=0;entryPerimeter=0;fontSize=23;fontColor=#000000;" edge="1" parent="1" source="E94o1vfJvXE0FjkTLuiu-88">
          <mxGeometry relative="1" as="geometry">
            <mxPoint x="514.27" y="990" as="targetPoint" />
          </mxGeometry>
        </mxCell>
        <mxCell id="E94o1vfJvXE0FjkTLuiu-88" value="" style="shape=orEllipse;perimeter=ellipsePerimeter;whiteSpace=wrap;html=1;backgroundOutline=1;fontSize=23;fontColor=#000000;strokeWidth=1;perimeterSpacing=0;" vertex="1" parent="1">
          <mxGeometry x="505" y="1021.55" width="20" height="20.77" as="geometry" />
        </mxCell>
        <mxCell id="E94o1vfJvXE0FjkTLuiu-89" style="edgeStyle=orthogonalEdgeStyle;rounded=0;orthogonalLoop=1;jettySize=auto;html=1;exitX=1;exitY=0.5;exitDx=0;exitDy=0;entryX=0;entryY=0.5;entryDx=0;entryDy=0;fontSize=23;fontColor=#000000;" edge="1" parent="1" source="E94o1vfJvXE0FjkTLuiu-90" target="E94o1vfJvXE0FjkTLuiu-88">
          <mxGeometry relative="1" as="geometry" />
        </mxCell>
        <mxCell id="E94o1vfJvXE0FjkTLuiu-90" value="" style="shape=image;verticalLabelPosition=bottom;labelBackgroundColor=#ffffff;verticalAlign=top;aspect=fixed;imageAspect=0;image=data:image/png,iVBORw0KGgoAAAANSUhEUgAAAHAAAABtCAYAAAB5qOUOAAAgAElEQVR4nO1deXRTZfp+7s2+NEnTfaMb3bClFBFFCrRKLYgwgCOIC4PK4Iy4Ho9Hhh+KZ5AZ92046ODIHNBSj4gKQkGmOk5ZSkuxZacLdIOmS0q3NEmz3Pf3R03k9qZla6FBn3Pu6UlIwvd9z7e837syRES4znA1wWq14siRIygsLMS+fftQVVWF9vZ2dHR0oKurC06nU/CdwQDDMO6/CoUCWq0WOp0O4eHhSElJwZQpU5CZmQmFQgGWZd2fHw5grjeBDocD3d3d2LFjBwoKClBSUgKDwYDz58/DarVez6ZBLBbDx8cH/v7+SE5OxoQJE5CVlYWkpCRIpdJhQeR1IZCIYLPZYLFY8Omnn+K7777DyZMnYTQaYTKZwHHcgN8Xi8XQaDRQKBRQKpWQyWSQy+WIjY2FWq3ud2AbGxtRX1+Pnp4eWK1WmM1mmEwmWCyWi65omUwGvV6PmJgYpKenY+bMmUhNTYVSqQTLslc8FleLa06gzWZDWVkZ8vPzsWfPHhw/fhxNTU2w2Wz9fkcsFiMgIACBgYEIDg7GLbfcguDgYGg0Gmg0GqjVaqjVavj7+0MikfT7OyaTCUajEd3d3ejq6kJ7eztaW1uxd+9eNDY2wmg0orW1Fd3d3QO2RavVIjY2FpMmTcKMGTNw8803w8fH57qsyGtGoNPpRHNzM3bv3o2cnBwcP34cLS0tsNvtHj8vlUoRFBSE2NhY3HHHHYiNjUVgYCACAgIQHBwMqVQKsVgMsVgMkUjkfgYCEcHhcMDpdMLpdMLhcMBut6OpqQnNzc1oaWnBmTNnsH//ftTU1KC2thZdXV0eV6dIJIJWq0VCQgImT56M2bNnIzk5GSqV6poSOeQEEhFaW1tRWFiIL774AsXFxairq0NPT49gYFiWhV6vR1JSErKzs3HTTTchNDQUUVFRUCqVkEgkkEgkg75lERHsdjvsdjssFgsMBgOamppQVlaGwsJCHD58GHV1dR4nm0QigVarRUpKCiZNmoQFCxYgLi7uopNpsDCkBHIch+LiYuTm5mLfvn2oqKhAd3e34IwTiUQIDQ1Feno6Jk+ejLS0NERHR8PHxwcSiQRisXiomthvux0OBzo7O9HU1ASDwYDvv/8e//3vf1FSUsKThl1wnZHp6el4+OGHkZ6eDp1ON+SrccgIbG9vx/bt2/Hpp5+itLQUbW1tcDgcgs8FBgZizpw5+P3vf4+IiAgEBQVBrVZDJBINCymP4zg4nU60tLTg3Llz+Oabb5CXl4cjR44IJiLDMFAqlYiPj8eECRPw/PPPIzo6emj7QUOAyspK+uMf/0ijRo0ihUJBDMMQAN6j0+lo/vz5lJ+fT9XV1WSz2cjpdA5FcwYFHMeRw+GghoYGKiwspOXLl9NNN91ELMsK+iYSiUiv19O9995LeXl5ZLVah6xdg07gnj17aNq0aeTr60sikUjQOalUSlOmTKG8vDyqqKggu91OHMcNdjOGFA6HgwwGA+3du5f+/Oc/U2hoqGCSMgxDKpWKxo8fT2+//TZ1dHQMSVsGjUCTyUTr16+nCRMmkFwu53WIYRgSi8WUkpJCq1evprKyMrLZbF5HXF84HA6qra2lHTt2UFZWFvn4+AhWpEQiocjISHr++eepsbFx0HeZqyaQ4zhqb2+nv/71r5SYmEgSicTjdvLggw9SQUEBtbS0DOut8krQ09NDZWVltGLFCo9jwDAM+fn50SOPPEKVlZWD2v+rIpDjOGppaaFVq1ZRdHS0YMuUSCSUlpZGr7/+Op08eZLsdvtgtXvYwel0ksFgoK1bt1JGRgapVCrB8aHRaGjRokWDSuIVE8hxHNXX19OyZcsoKiqKxGIxb8YpFArKzMykb7/9lpqbm2+4VdcfzGYzFRUV0UMPPURarVZwNmq1Wnr00UepqqpqUMbkigh0rbzly5dTWFiYYOUplUqaP38+FRQUUHd391U30ttgt9upvLycXnvtNRoxYsSQknjZBHIcR0ajkV577TWKjY31SN6CBQuorKxsSMXn4Q6O46i5uZk++eQTio6OFpCo0+nokUceuWoSL5tAm81Gb731FiUkJAgOa51OR48//jgdPnz4hj7vLgdtbW20ceNGSk1NFUioWq2WFi5cSOfOnbtiifyyCOQ4jnbu3EnJyckeyXv22WepvLz8N/L6oKOjg7766isaM2aMgESNRkPPPPMMtbe3X9FvXzKBHMdRcXExTZo0iaRSqeByvnTpUqqsrCSHw3FFDbnR0dXVRZ9//jnFxMQIttPAwEB6/fXXr0heuGQCa2tradq0aSSXywXkzZs3j44fP/4beRdBR0cHrV+/nqKiongksixLiYmJtHXr1svevS6JQKvVSo8++igplUrB3Wb69OlUUlJCNpvtijr1a0NbWxt98MEHFBAQwCNRIpHQ1KlT6fjx45cl1FyUQI7jaNOmTYL/kGVZmjJlCu3bt496enquqlO/NjQ2NtLChQvJx8eHN6Y+Pj706KOPUlNT0yULNQMSyHEcHT16lG699VbedYFlWYqPj6dt27b9qq8KVwqO46isrIxmzJhBCoWCpwAJDQ2l3NzcS97RBiSwtbWVFi9eLFALBQQE0Msvv0znz5+/5JniMsdc+PxatDOeYLfbKT8/n8aMGcPTYolEIsrMzKSSkpJLkin6NXUTEX744Qfk5+fDYrG435fJZLjzzjvx0EMPQavVejRWOp1Ot4uCywfl3LlzOHnyJM95SS6XY8qUKRCLxW7Lu+vvcDDmDiXEYjFuv/12LFq0CKtWrcL58+dBRHA6nSgpKcHGjRsRFRUFvV4/4Fj0S2B9fT02bNgAg8HgtjyLRCKMGTMGTz31FKKjo3m+KS7/zu7ubvz44484c+YM6uvr0dzcDKPRCLPZjI6ODp4fDMuyCAoKglKpRHBwMMLCwhAVFYWxY8ciJibG7VJxo5KpUCgwf/58FBQUYNu2bW6PBZPJhF27duGee+5BRkbGgJ52Hgl0OBzYvXs3Dh48yFsxKpUK8+fPx5gxY9x+KjabDU1NTSgsLERhYSHKy8tRWVkJk8kEs9mMnp4e9PT09NuAqqoqiEQiyOVyt59nREQEkpOTkZiY6PZIU6lUVzRIwx1BQUF48cUXcejQIdTV1YF6jzXU1NTg008/RUpKCoKCgvqfxJ721TNnztC0adN42haxWEzTpk2jM2fOEMdxZLfbqaKigtavX0/z5s2jUaNGkV6vF1zyr+QRi8Wk1WopPDycpk2bRitWrKDS0lIym82DeQwNG9hsNlq2bJlg7MLCwuibb74ZUMoXEGiz2eif//wnBQUF8URcvV5PX375JfX09FBNTQ1t2LCB5s6dS/Hx8aRSqTz6hgzGI5fLKTAwkLKzs+nVV191T6AbDZWVlZSWlsYbR5FIRPPmzaPm5uZ++yzYQpuamvDVV1+5D1UXpk6divT0dOTn5yMnJwelpaWora2F1Wrt1xXe5VEdHh6OgIAA+Pn58Rxfm5qa0NXVhaqqKhgMBo+xEFarFVarFT/++CNOnDiB8vJy3H///Zg8eTLUarXnbcULER0djUWLFuGll15CZ2cngF5h8H//+x+KioqQnZ3t8SzkuRU6HA5s3LgRL774IlpbW90EyuVyfPTRRzAajdi8eTOOHz8Os9ncL3FpaWkYP348brnlFne8glwuh1wu5zXCYrHAbrejs7PT7eL+008/ud0QyYPjr4+PDxISEvC73/0OixcvRkBAwA0j5Jw7dw6LFy9Gfn6+W6BhWRYLFy7Eu+++C51OJ/zShcuxtbWV5s6dy7uXAKCMjAyaPn06RUZGCqwQrker1dLs2bPpo48+ooMHD1JNTQ11dnaS0+kkjuMGfJxOJ9lsNjp37hwdOXKEtm3bRosXL/bo7YWf1U4RERH09NNPX5UpZrjB4XDQunXreJd7ABQUFES7d+/2qCd1E8hxHH355ZcUFhbmUVuuVCoF74vFYtLpdPTAAw/Qrl276NSpU9TZ2XlVA8pxnPuc/f777+nZZ5+liIgIEovFAlWen58fLViwgE6fPn3DKAXOnj1LkydP5mm+GIahpUuXkslkEnzeTaDZbKYnn3zykqRIhmFIqVTS1KlTad26dVReXj4klgiHw0Fnz56lrVu3UmZmJmk0GsEkUqlUdP/991NNTc0NQaLdbqd//OMfpFaref2Mi4ujxsZGweIA0S8OSqNHj76oNMmyLAUGBtKSJUuoqKiI2tvbh3wLs1gsdOjQIfq///s/jzuEWq2mpUuXDonf5bUGx3EeJVKJREI5OTkCHSmIel3iNm7cKGC97yMWi2nMmDH07rvvUmVl5TW1vDudTjp37hytWbOGYmNjBSTq9XpasWIFtbW1ef2ZaLFYaMWKFYKzcM6cOdTV1cX7LIh6HVMfe+wxgfDSd+XdfPPN9PXXX19X59zW1lb65JNPKCEhQbBbRERE0Lp167zeNslxHBUVFQk82sLCwgRCG4h6D86UlBSPEp/rSUhIoG3btnk8SK81zp8/T5988onAPYFlWRo3bhxVVVV5/So0GAx055138oQZsVhMn3/+OW+CskSEkpIS1NTU9BsnrtfrsWTJEmRmZg4LnaROp8Ps2bPxzDPPIDAw0H0P5DgOR48exVtvvQWz2XydW3l10Ol0uOuuu3j3ZpeO+sIwPdYVhNlfRgipVIr58+dj/vz5w4I8oDcOz9fXF3PnzkVGRgakUqn733p6erBlyxYcOHDAYyCmt0Amk+HWW28VmOwKCgr4BBIRfvrpp361Kunp6XjiiScQEhIyrDQeDMMgODgYS5YswU033cQzbRmNRvzrX//i2TG9DQzDIDQ0FBEREbxxd5noXLsly3Ecjh075pHA8PBwvPTSS0hISLiuqTT6g1gsxm233YbHHnuMZ/gkIhQUFKCoqMirV6FOp0NYWBhv7O12O4qLi39RtR08eJCn93SBYRh3Co1rHaN+OVAqlZg6dapgkhmNRuzatctjWLe3QKfTITMzk3cOEhFKS0vdE5M9fPiwx1kaExODJUuWQKlUDqut0xOioqLw4IMP8lah3W7Hf/7zH9TU1Fw0cdBwhUQiwahRo+Dr68vj4MyZM+4+sRe+cEEsFmPOnDmIj4+/ZukyrgZSqRQZGRk8Nw8iwtmzZz0mI/Am6HQ6niBDRKiqqvplBR49elTQwdDQUNx3331QKBTXvMFXipiYGGRmZkIul7vfM5lMOHTokFefgz4+PoIsUI2NjW5fJdblh3EhUlNTBU5Lwx0ymQzjxo2DRqNxd9Zms+HAgQMez3hvgVarhVar5b1ns9nckijb2NjI65xIJEJ6evqASeOGK+Lj43kEEhEMBgMaGhq8lkCNRiOQRB0OB5qamnoJ7JtkTi6X45ZbbuFdjr0F0dHRgs6aTCZ3Z70RCoVCIGE7nU6cOHECBoMB4r7nn06ng5+fn9etPgBQq9VISkpCYWGh+/pgsVg8umd4C1iWFSTQs9ls+Pbbb1FdXQ1x347p9XooFAqvJJBhGISEhPDurT09Pejs7PRaAoFeQUahULjVnU6nE0ePHkV5ebmQQK1WC5lMdj3aOSgICQlxe3MTEXp6emAymbyaQLVa7c4QTD87/rq89di+HZNKpV4lffaFTCbj7R6uOA1vxkCTj+1Lllar9UoBxoXhkst6MGEymTzmVwUAwVKTyWTDWvd5MXjaPRwOh1dvoTabrV+drqC3rj3WW+HpCDh27NiAebCHM4gI3d3d/WqT2L7bjclk8uozIzQ0VLCDGAwGr5VEbTYbTpw4wVuBDMO4E697JHCgDPLDHaGhoQIdbkdHh9feBdvb23H27Fle2yUSCTIzM/HGG2+A7Rsw0dXV5dUr0N/fX6CNaWtrg9Fo9EoCDQYDL8gW6CVwypQpyMrKAnuhUxDQO1v7k3i8ARKJRGAGa2trw7Fjx7xuYnIch8OHD8NgMPD4EIvFiI+P7y0FFBYWxiNwOJS8uVqMGzeOR6ArPM3bVqHJZMLevXsF57cryz/LsmBHjBjBI7CzsxMnTpzwahva7bffziPQ5W7YdyYPdzQ2NqK0tFSwc6hUKreTGZuYmCjQdJeVlXn1Khw5ciSSkpJ4/WpsbMR3333nNdeJnp4e7Nq1C9XV1bxJxzAM4uLi3ApuNjY2VqC5qK6u9upzUKFQYNasWbzrhNVqxZYtW7xmFRqNRnz55Zcerz8jR4507zDsxIkTBQ67p0+f9mqfSgBYuHAhgoODecbdU6dOITc3FyaT6Tq3bmBYLBasX78eR44cERxlDMPwhDQ2KChI4D5RWVkpyOnibYiIiMDChQt5lpWenh5s2LABu3fvHrZ3XafTiW3btuGzzz7zWHiLYRiMHz/+FwJZlkVaWhqPQLPZjK1bt3r1OcgwDBYvXizwVKutrcXHH3+MlpaWYeetRj8XCvv444/7dYfU6XQ8Cz3LMAwyMjIE6qeCggKvJhDo9SxftGgRfHx83O9xHId9+/bhww8/HFbqNSJCe3s7Xn31VRQXF/e7Q6SlpfEt9EREdXV1FB4ezgvVCg0NpZMnT3p1xCvHcVRXV0fZ2dmC0PHg4GB6//33qbOz83o3k4iIOjs7afny5YK0nn2fVatW8TJEgqg3Pn7atGmCWLR33nnH69NJOhwO+vrrr2nUqFGCgNC4uDh6//33r3vMY1tbG61evbrfrByuR61WU1FREW9Rgag3sH7lypWCFCKZmZlDVrTpWqK9vZ3ef/99CgkJEQSEjhw5ktauXXtNYv37wul0UkNDAy1fvpwiIiIGJA8ApaenU2trK+833DHye/bsEWyjOp2ODh486PW5sDmOo4aGBlq5ciXp9XoBiUlJSfS3v/2NDAbDNSPRZrPRrl276PHHH/eYuKG/7dNisfB+x51mxGg00qxZswT5SZ5++mnBl7wRHMdReXk5zZ07V5DMQSQSUVRUFD333HO0b9++Ia024zqX161bR3fccQf5+fldUp65oKAgj0lg3QTa7XbavHkz+fr68r4YGRlJJ06c8PqYc6LeWb9nzx66++67BQncXelTMjMz6e9//zsdOXJkUJMluHaB3NxcWrRoESUlJXksjimRSAS5tAHQ7Nmz6fz584Lf5aXaqq2tpfHjxwsy5q1cufKGSWxutVpp79699MADDwgSBzEMQ1KplCIjIyk7O5veeOMNKioquioiOY6j2tpa2rBhAz300EOUmppKOp1OULKIYRjy9/en9PR0wQ4hk8lo586dHtvBS3ZnsVjwl7/8BWvXruVpwKOiovDjjz+ir+XCW2Gz2VBdXY2cnBysWbMG7e3tgkzCYrEYwcHB7uSzaWlpSE5ORkpKCu9e2R/OnDmD0tJSHDp0CGVlZaiurkZDQwMsFgucTqfAPJSQkIAFCxagpKQEeXl5vPGfOHEitmzZgr62W6BPtkIiwv79+7FkyRKcOnXqlyBClsVf//pXvPDCC17tctgXBoMBu3fvxptvvonq6mpBZguGYcCyLJRKJfz8/KDX6+Hv74+QkBD4+/u7XzMMA7PZjObmZnc9+tbWVhiNRrS0tKCjowMcx3mMw3Qp3h944AE0Nzfj5Zdf5rlQSCQSrFy5Es899xyUSqWwE32XZGdnJz3xxBOCLEFxcXF08OBBr77Ye0JXVxfl5+fTCy+8QJGRkR6Lm6DPVqdQKMjX15eCg4MpKiqKoqOjKSIigvz9/S8p+a1IJCKdTkczZsyg9957j06ePEmdnZ107733CpItpaWlUVlZWb83AQGBHMfRDz/8ILj4SqVSeuGFF27ItMd2u53q6upo8+bN9MQTT1B8fDxpNJpBz0Isk8koNDSUpk+fTqtXr6affvqJWltbyel0Uk5OjkALo1KpaNWqVYL0WhdC4MHLMAzGjh2LrKws1NfXo6urC0BvzPnWrVsxadIkTJ8+3audf/tCLBYjIiIC/v7+GDt2LKZOnYoTJ06guLgYR48eRVNT04CZiS/22wEBAQgMDERqaiomTpyIcePGISwsDAEBAWBZFtXV1Vi7di0vS7LLyDBz5swBI6U9sqDRaNzp8F02Kfo5k/q6deswatQoxMTE3BACzYVQKBSIjo5GSEgIJk6ciLvvvhunTp1CfX09Dhw4gLNnz6Krqwutra1wOBzo6uri+Wv6+PhAKpXCx8cHarUaAQEBmDRpEkaMGIGwsDBER0cjKCgIGo3GbU2w2+3YtGkT+iab8PPzw3333ccz3nqCRwIZhsHo0aMxa9Ys1NbWun0q7XY7CgsL8c033+BPf/rTsMncNJhgGAYKhQIKhQJ+fn6Ii4uD1WpFdnY2Wltb0dXVhba2NnedjAsJVKlUkMlkUKlUUKlU0Ov1iI6OhlKphEwmE8RtcByH7777Djk5OTwBSiqVYubMmRddfQCEQowLHMdRVVUVzZw5k6fJF4lENHbsWNq2bZvXZwW8HDidTurp6SGz2UxdXV3U2dlJbW1tdP78effT0dFBnZ2d1N3dTRaL5aLpOE+ePEn33HOPoKRfTEwM7dix45LGd8DaSU6nk7Zs2ULh4eG8A10ul9Pdd99N+/fv/61a5xWio6ODli9fTv7+/jzBRaPR0LJly6ilpeWStF8XLT/X1tZGzz77LMlkMp4o7Sri6ykN8G8YGFarlT7++GNKSEjgaWQkEglNmjSJDh06dMkGhEsqAHn69GmaMGECbxUyDEPBwcH05ptvDijm/gY+nE4nffHFFzRu3DiPRubc3NzLsk9eEoEcx9G3334rMDexLEsxMTH0wQcf/CrrxV8uHA4H5eXl0ZQpU0gul7vHkmEYUqlU9Morr5DRaLysHe2Sa+h2d3fTmjVrSKfTCTQTUVFRtHbt2hvC7DRUsNvttH37dsrMzBSUcBCLxfSHP/yBamtrL1vTdVllyFtaWmj58uUCEgFQYmIi5ebm/kaiB9hsNtqxYwdlZmYKVJQsy9Ktt95Khw4duiI15WXXka+traUnn3ySdDodbxaJRCJKTU2ltWvX/radXgAXeXfccYdAzyoSiSgpKYny8vKu2Fx3WQQS9ZJYUVFBTz75JPn6+gpIjI6OpjVr1vwm2FCvtLl9+/Z+yRs9ejR99tlnVzXhL5tAol5J6tSpU/T0008LSMTPlov33nuPWltbf7VXDKvVSuvXr6eMjAyP5KWlpVFOTs5V17m4IgKJekksLy+np556SkCiy9vrlVdeodOnT//qLvvt7e304YcfUkpKikDL4tJk5ebmDkqRkismkOgXEpcuXSo4E1mWpYiICHrwwQdpx44dN6QZqi+cTidVVVXRqlWrKDExUWDbc5G3adOmQaswc1UEuhrtIlGj0QiuGBqNhiZPnkxr166l6urqG84g7ILZbKavvvqKHn74YYqMjBT4vMjlcpowYcKgrTwXrppAol4SKysradmyZR5JlMlklJCQQA8//DDt3r37hnGQIuq9nB8/fpxef/11uu2220ir1QoMwQqFgu666y7avn37oDsQDwqBRL9UQHvnnXc83hNFIhFpNBq6/fbbafXq1XTs2DGvdxi2Wq3073//m+bMmUNRUVEklUo9lsd76qmnqKioiLq7uwddqBs0Al0wGo20ceNGGjt2rMBVn2EYkkgkFBYWRpmZmfT2229TfX29V22rHMe54y0ef/xxSkxMJKVSKVh1IpGIgoOD6bXXXqOqqqohm6yDTiBRr9pt//79tGTJEtLr9YLDnGEYEolEFB4eTnfddRe99957VF1dTQ6HY1heO1ylYh0OB23ZsoUWLVpEycnJpFarBcS59Jp33nknff755wNWoB4M8NwKBxNEhDNnziAvLw87duxAYWEhTCaTwK+EZVmEhYUhJSUFGRkZmDFjBmJjYyEWi8Gy7HV12yAiOBwO1NbWYt++fdi/fz/279/fbwi6XC5HSEgI7r33XsybNw/JyclDnvl/yAgE4A5arKqqwqZNm7Bz50536fK+kEgkCAwMREJCAkaPHo1x48YhPT0dAQEBkEqlEIlE14RMp9MJh8MBu92OiooK7N69G3v37kVFRQUaGhpgNpsFQaEikQiBgYGYOnUqsrOzkZ6ejoiIiGuSd3VICXTB6XSirq4OxcXF2LlzJ/bv34/a2lqPUagikQg+Pj4IDAxEYmKi+8nMzIRGo4FMJhvUlJgusmw2Gzo6OnDw4EFUVla6n9OnT8NoNPbbVr1ej4kTJyIrKwsZGRkYMWKEIMf1UOKaEAj0rkaz2Yz6+nocOXIE27dvx4EDB3D69Ol+3fWkUik0Gg10Oh2io6MRFRWF8PBwxMbGYty4cW4yJRIJxGKxO9Vyf3CR5fprtVpx4MAB1NfXo7GxEbW1taisrER7ezs6OjpgsVg8to1lWfj6+iI9PR1ZWVmYMGECoqOjodVqr3m242tGoAsuImtra3Hy5Els3rzZHTswUOYIlmWhVquhUqnctRR8fHyg1Wqh0WigUqmgVqsHXJnd3d3o6uqCyWSC2WxGS0sL6uvr3a/NZjN6enoGbH9oaCjS0tIwa9Ys3HzzzYiJiYFGo7luJYquOYEu0M+Ju0+fPo2amhpUVlZi69atOHXqFK8+Xn9wBaBIpdIrWoEOh+OSnXWVSiUiIyMxduxYzJgxAyNHjkRCQgJUKtV1ry113Qh0geM42O12mM1mnDp1ChUVFfjhhx9QXl6O8vLy65avRi6XIyIiAqmpqcjKykJkZCRGjBiByMhIyGSy606cC9edwAvhdDphNpvR0NAAo9GI8vJylJaWoqKiAhUVFairqxuy3C4sy0Kr1SIuLg7x8fGYMGEC4uLiEBISgsjISMjlcojF4mHnjT6sCHSBfs7b3d3djfPnz7ufjo4OtwTb2NiIs2fPoqWl5YoS2IWHh0Ov1yM8PBwxMTEYOXIkYmNj3WFkwcHBUKvV1/0uejEMSwL7wtVEIkJDQwM6OzvR3d0Nk8kEi8UCu90Oo9F40RpJCoUC4eHh7vgFuVzuFoR0Oh2vzNtwJu1C/D+aFVk4TP4AAAACSURBVIH86miqhwAAAABJRU5ErkJggg==;" vertex="1" parent="1">
          <mxGeometry x="445" y="1012.3199999999999" width="40.31" height="39.23" as="geometry" />
        </mxCell>
        <mxCell id="E94o1vfJvXE0FjkTLuiu-91" style="edgeStyle=orthogonalEdgeStyle;rounded=0;orthogonalLoop=1;jettySize=auto;html=1;exitX=0.5;exitY=0;exitDx=0;exitDy=0;entryX=0.5;entryY=1;entryDx=0;entryDy=0;fontSize=23;fontColor=#000000;" edge="1" parent="1" source="E94o1vfJvXE0FjkTLuiu-92" target="E94o1vfJvXE0FjkTLuiu-94">
          <mxGeometry relative="1" as="geometry" />
        </mxCell>
        <mxCell id="E94o1vfJvXE0FjkTLuiu-92" value="&lt;sub&gt;&lt;span style=&quot;font-size: 23px&quot;&gt;S&lt;/span&gt;&lt;span style=&quot;font-size: 19.1667px&quot;&gt;n&lt;/span&gt;&lt;/sub&gt;" style="rounded=1;whiteSpace=wrap;html=1;fontSize=23;fillColor=#d5e8d4;strokeColor=#82b366;" vertex="1" parent="1">
          <mxGeometry x="615" y="1060.78" width="100" height="40" as="geometry" />
        </mxCell>
        <mxCell id="E94o1vfJvXE0FjkTLuiu-93" style="edgeStyle=orthogonalEdgeStyle;rounded=0;orthogonalLoop=1;jettySize=auto;html=1;exitX=0.5;exitY=0;exitDx=0;exitDy=0;entryX=0.081;entryY=0.987;entryDx=0;entryDy=0;entryPerimeter=0;fontSize=23;fontColor=#000000;" edge="1" parent="1" source="E94o1vfJvXE0FjkTLuiu-94">
          <mxGeometry relative="1" as="geometry">
            <mxPoint x="664.27" y="990" as="targetPoint" />
          </mxGeometry>
        </mxCell>
        <mxCell id="E94o1vfJvXE0FjkTLuiu-94" value="" style="shape=orEllipse;perimeter=ellipsePerimeter;whiteSpace=wrap;html=1;backgroundOutline=1;fontSize=23;fontColor=#000000;strokeWidth=1;perimeterSpacing=0;" vertex="1" parent="1">
          <mxGeometry x="655" y="1021.55" width="20" height="20.77" as="geometry" />
        </mxCell>
        <mxCell id="E94o1vfJvXE0FjkTLuiu-95" style="edgeStyle=orthogonalEdgeStyle;rounded=0;orthogonalLoop=1;jettySize=auto;html=1;exitX=1;exitY=0.5;exitDx=0;exitDy=0;entryX=0;entryY=0.5;entryDx=0;entryDy=0;fontSize=23;fontColor=#000000;" edge="1" parent="1" source="E94o1vfJvXE0FjkTLuiu-96" target="E94o1vfJvXE0FjkTLuiu-94">
          <mxGeometry relative="1" as="geometry" />
        </mxCell>
        <mxCell id="E94o1vfJvXE0FjkTLuiu-96" value="" style="shape=image;verticalLabelPosition=bottom;labelBackgroundColor=#ffffff;verticalAlign=top;aspect=fixed;imageAspect=0;image=data:image/png,iVBORw0KGgoAAAANSUhEUgAAAHAAAABtCAYAAAB5qOUOAAAgAElEQVR4nO1deXRTZfp+7s2+NEnTfaMb3bClFBFFCrRKLYgwgCOIC4PK4Iy4Ho9Hhh+KZ5AZ92046ODIHNBSj4gKQkGmOk5ZSkuxZacLdIOmS0q3NEmz3Pf3R03k9qZla6FBn3Pu6UlIwvd9z7e837syRES4znA1wWq14siRIygsLMS+fftQVVWF9vZ2dHR0oKurC06nU/CdwQDDMO6/CoUCWq0WOp0O4eHhSElJwZQpU5CZmQmFQgGWZd2fHw5grjeBDocD3d3d2LFjBwoKClBSUgKDwYDz58/DarVez6ZBLBbDx8cH/v7+SE5OxoQJE5CVlYWkpCRIpdJhQeR1IZCIYLPZYLFY8Omnn+K7777DyZMnYTQaYTKZwHHcgN8Xi8XQaDRQKBRQKpWQyWSQy+WIjY2FWq3ud2AbGxtRX1+Pnp4eWK1WmM1mmEwmWCyWi65omUwGvV6PmJgYpKenY+bMmUhNTYVSqQTLslc8FleLa06gzWZDWVkZ8vPzsWfPHhw/fhxNTU2w2Wz9fkcsFiMgIACBgYEIDg7GLbfcguDgYGg0Gmg0GqjVaqjVavj7+0MikfT7OyaTCUajEd3d3ejq6kJ7eztaW1uxd+9eNDY2wmg0orW1Fd3d3QO2RavVIjY2FpMmTcKMGTNw8803w8fH57qsyGtGoNPpRHNzM3bv3o2cnBwcP34cLS0tsNvtHj8vlUoRFBSE2NhY3HHHHYiNjUVgYCACAgIQHBwMqVQKsVgMsVgMkUjkfgYCEcHhcMDpdMLpdMLhcMBut6OpqQnNzc1oaWnBmTNnsH//ftTU1KC2thZdXV0eV6dIJIJWq0VCQgImT56M2bNnIzk5GSqV6poSOeQEEhFaW1tRWFiIL774AsXFxairq0NPT49gYFiWhV6vR1JSErKzs3HTTTchNDQUUVFRUCqVkEgkkEgkg75lERHsdjvsdjssFgsMBgOamppQVlaGwsJCHD58GHV1dR4nm0QigVarRUpKCiZNmoQFCxYgLi7uopNpsDCkBHIch+LiYuTm5mLfvn2oqKhAd3e34IwTiUQIDQ1Feno6Jk+ejLS0NERHR8PHxwcSiQRisXiomthvux0OBzo7O9HU1ASDwYDvv/8e//3vf1FSUsKThl1wnZHp6el4+OGHkZ6eDp1ON+SrccgIbG9vx/bt2/Hpp5+itLQUbW1tcDgcgs8FBgZizpw5+P3vf4+IiAgEBQVBrVZDJBINCymP4zg4nU60tLTg3Llz+Oabb5CXl4cjR44IJiLDMFAqlYiPj8eECRPw/PPPIzo6emj7QUOAyspK+uMf/0ijRo0ihUJBDMMQAN6j0+lo/vz5lJ+fT9XV1WSz2cjpdA5FcwYFHMeRw+GghoYGKiwspOXLl9NNN91ELMsK+iYSiUiv19O9995LeXl5ZLVah6xdg07gnj17aNq0aeTr60sikUjQOalUSlOmTKG8vDyqqKggu91OHMcNdjOGFA6HgwwGA+3du5f+/Oc/U2hoqGCSMgxDKpWKxo8fT2+//TZ1dHQMSVsGjUCTyUTr16+nCRMmkFwu53WIYRgSi8WUkpJCq1evprKyMrLZbF5HXF84HA6qra2lHTt2UFZWFvn4+AhWpEQiocjISHr++eepsbFx0HeZqyaQ4zhqb2+nv/71r5SYmEgSicTjdvLggw9SQUEBtbS0DOut8krQ09NDZWVltGLFCo9jwDAM+fn50SOPPEKVlZWD2v+rIpDjOGppaaFVq1ZRdHS0YMuUSCSUlpZGr7/+Op08eZLsdvtgtXvYwel0ksFgoK1bt1JGRgapVCrB8aHRaGjRokWDSuIVE8hxHNXX19OyZcsoKiqKxGIxb8YpFArKzMykb7/9lpqbm2+4VdcfzGYzFRUV0UMPPURarVZwNmq1Wnr00UepqqpqUMbkigh0rbzly5dTWFiYYOUplUqaP38+FRQUUHd391U30ttgt9upvLycXnvtNRoxYsSQknjZBHIcR0ajkV577TWKjY31SN6CBQuorKxsSMXn4Q6O46i5uZk++eQTio6OFpCo0+nokUceuWoSL5tAm81Gb731FiUkJAgOa51OR48//jgdPnz4hj7vLgdtbW20ceNGSk1NFUioWq2WFi5cSOfOnbtiifyyCOQ4jnbu3EnJyckeyXv22WepvLz8N/L6oKOjg7766isaM2aMgESNRkPPPPMMtbe3X9FvXzKBHMdRcXExTZo0iaRSqeByvnTpUqqsrCSHw3FFDbnR0dXVRZ9//jnFxMQIttPAwEB6/fXXr0heuGQCa2tradq0aSSXywXkzZs3j44fP/4beRdBR0cHrV+/nqKiongksixLiYmJtHXr1svevS6JQKvVSo8++igplUrB3Wb69OlUUlJCNpvtijr1a0NbWxt98MEHFBAQwCNRIpHQ1KlT6fjx45cl1FyUQI7jaNOmTYL/kGVZmjJlCu3bt496enquqlO/NjQ2NtLChQvJx8eHN6Y+Pj706KOPUlNT0yULNQMSyHEcHT16lG699VbedYFlWYqPj6dt27b9qq8KVwqO46isrIxmzJhBCoWCpwAJDQ2l3NzcS97RBiSwtbWVFi9eLFALBQQE0Msvv0znz5+/5JniMsdc+PxatDOeYLfbKT8/n8aMGcPTYolEIsrMzKSSkpJLkin6NXUTEX744Qfk5+fDYrG435fJZLjzzjvx0EMPQavVejRWOp1Ot4uCywfl3LlzOHnyJM95SS6XY8qUKRCLxW7Lu+vvcDDmDiXEYjFuv/12LFq0CKtWrcL58+dBRHA6nSgpKcHGjRsRFRUFvV4/4Fj0S2B9fT02bNgAg8HgtjyLRCKMGTMGTz31FKKjo3m+KS7/zu7ubvz44484c+YM6uvr0dzcDKPRCLPZjI6ODp4fDMuyCAoKglKpRHBwMMLCwhAVFYWxY8ciJibG7VJxo5KpUCgwf/58FBQUYNu2bW6PBZPJhF27duGee+5BRkbGgJ52Hgl0OBzYvXs3Dh48yFsxKpUK8+fPx5gxY9x+KjabDU1NTSgsLERhYSHKy8tRWVkJk8kEs9mMnp4e9PT09NuAqqoqiEQiyOVyt59nREQEkpOTkZiY6PZIU6lUVzRIwx1BQUF48cUXcejQIdTV1YF6jzXU1NTg008/RUpKCoKCgvqfxJ721TNnztC0adN42haxWEzTpk2jM2fOEMdxZLfbqaKigtavX0/z5s2jUaNGkV6vF1zyr+QRi8Wk1WopPDycpk2bRitWrKDS0lIym82DeQwNG9hsNlq2bJlg7MLCwuibb74ZUMoXEGiz2eif//wnBQUF8URcvV5PX375JfX09FBNTQ1t2LCB5s6dS/Hx8aRSqTz6hgzGI5fLKTAwkLKzs+nVV191T6AbDZWVlZSWlsYbR5FIRPPmzaPm5uZ++yzYQpuamvDVV1+5D1UXpk6divT0dOTn5yMnJwelpaWora2F1Wrt1xXe5VEdHh6OgIAA+Pn58Rxfm5qa0NXVhaqqKhgMBo+xEFarFVarFT/++CNOnDiB8vJy3H///Zg8eTLUarXnbcULER0djUWLFuGll15CZ2cngF5h8H//+x+KioqQnZ3t8SzkuRU6HA5s3LgRL774IlpbW90EyuVyfPTRRzAajdi8eTOOHz8Os9ncL3FpaWkYP348brnlFne8glwuh1wu5zXCYrHAbrejs7PT7eL+008/ud0QyYPjr4+PDxISEvC73/0OixcvRkBAwA0j5Jw7dw6LFy9Gfn6+W6BhWRYLFy7Eu+++C51OJ/zShcuxtbWV5s6dy7uXAKCMjAyaPn06RUZGCqwQrker1dLs2bPpo48+ooMHD1JNTQ11dnaS0+kkjuMGfJxOJ9lsNjp37hwdOXKEtm3bRosXL/bo7YWf1U4RERH09NNPX5UpZrjB4XDQunXreJd7ABQUFES7d+/2qCd1E8hxHH355ZcUFhbmUVuuVCoF74vFYtLpdPTAAw/Qrl276NSpU9TZ2XlVA8pxnPuc/f777+nZZ5+liIgIEovFAlWen58fLViwgE6fPn3DKAXOnj1LkydP5mm+GIahpUuXkslkEnzeTaDZbKYnn3zykqRIhmFIqVTS1KlTad26dVReXj4klgiHw0Fnz56lrVu3UmZmJmk0GsEkUqlUdP/991NNTc0NQaLdbqd//OMfpFaref2Mi4ujxsZGweIA0S8OSqNHj76oNMmyLAUGBtKSJUuoqKiI2tvbh3wLs1gsdOjQIfq///s/jzuEWq2mpUuXDonf5bUGx3EeJVKJREI5OTkCHSmIel3iNm7cKGC97yMWi2nMmDH07rvvUmVl5TW1vDudTjp37hytWbOGYmNjBSTq9XpasWIFtbW1ef2ZaLFYaMWKFYKzcM6cOdTV1cX7LIh6HVMfe+wxgfDSd+XdfPPN9PXXX19X59zW1lb65JNPKCEhQbBbRERE0Lp167zeNslxHBUVFQk82sLCwgRCG4h6D86UlBSPEp/rSUhIoG3btnk8SK81zp8/T5988onAPYFlWRo3bhxVVVV5/So0GAx055138oQZsVhMn3/+OW+CskSEkpIS1NTU9BsnrtfrsWTJEmRmZg4LnaROp8Ps2bPxzDPPIDAw0H0P5DgOR48exVtvvQWz2XydW3l10Ol0uOuuu3j3ZpeO+sIwPdYVhNlfRgipVIr58+dj/vz5w4I8oDcOz9fXF3PnzkVGRgakUqn733p6erBlyxYcOHDAYyCmt0Amk+HWW28VmOwKCgr4BBIRfvrpp361Kunp6XjiiScQEhIyrDQeDMMgODgYS5YswU033cQzbRmNRvzrX//i2TG9DQzDIDQ0FBEREbxxd5noXLsly3Ecjh075pHA8PBwvPTSS0hISLiuqTT6g1gsxm233YbHHnuMZ/gkIhQUFKCoqMirV6FOp0NYWBhv7O12O4qLi39RtR08eJCn93SBYRh3Co1rHaN+OVAqlZg6dapgkhmNRuzatctjWLe3QKfTITMzk3cOEhFKS0vdE5M9fPiwx1kaExODJUuWQKlUDqut0xOioqLw4IMP8lah3W7Hf/7zH9TU1Fw0cdBwhUQiwahRo+Dr68vj4MyZM+4+sRe+cEEsFmPOnDmIj4+/ZukyrgZSqRQZGRk8Nw8iwtmzZz0mI/Am6HQ6niBDRKiqqvplBR49elTQwdDQUNx3331QKBTXvMFXipiYGGRmZkIul7vfM5lMOHTokFefgz4+PoIsUI2NjW5fJdblh3EhUlNTBU5Lwx0ymQzjxo2DRqNxd9Zms+HAgQMez3hvgVarhVar5b1ns9nckijb2NjI65xIJEJ6evqASeOGK+Lj43kEEhEMBgMaGhq8lkCNRiOQRB0OB5qamnoJ7JtkTi6X45ZbbuFdjr0F0dHRgs6aTCZ3Z70RCoVCIGE7nU6cOHECBoMB4r7nn06ng5+fn9etPgBQq9VISkpCYWGh+/pgsVg8umd4C1iWFSTQs9ls+Pbbb1FdXQ1x347p9XooFAqvJJBhGISEhPDurT09Pejs7PRaAoFeQUahULjVnU6nE0ePHkV5ebmQQK1WC5lMdj3aOSgICQlxe3MTEXp6emAymbyaQLVa7c4QTD87/rq89di+HZNKpV4lffaFTCbj7R6uOA1vxkCTj+1Lllar9UoBxoXhkst6MGEymTzmVwUAwVKTyWTDWvd5MXjaPRwOh1dvoTabrV+drqC3rj3WW+HpCDh27NiAebCHM4gI3d3d/WqT2L7bjclk8uozIzQ0VLCDGAwGr5VEbTYbTpw4wVuBDMO4E697JHCgDPLDHaGhoQIdbkdHh9feBdvb23H27Fle2yUSCTIzM/HGG2+A7Rsw0dXV5dUr0N/fX6CNaWtrg9Fo9EoCDQYDL8gW6CVwypQpyMrKAnuhUxDQO1v7k3i8ARKJRGAGa2trw7Fjx7xuYnIch8OHD8NgMPD4EIvFiI+P7y0FFBYWxiNwOJS8uVqMGzeOR6ArPM3bVqHJZMLevXsF57cryz/LsmBHjBjBI7CzsxMnTpzwahva7bffziPQ5W7YdyYPdzQ2NqK0tFSwc6hUKreTGZuYmCjQdJeVlXn1Khw5ciSSkpJ4/WpsbMR3333nNdeJnp4e7Nq1C9XV1bxJxzAM4uLi3ApuNjY2VqC5qK6u9upzUKFQYNasWbzrhNVqxZYtW7xmFRqNRnz55Zcerz8jR4507zDsxIkTBQ67p0+f9mqfSgBYuHAhgoODecbdU6dOITc3FyaT6Tq3bmBYLBasX78eR44cERxlDMPwhDQ2KChI4D5RWVkpyOnibYiIiMDChQt5lpWenh5s2LABu3fvHrZ3XafTiW3btuGzzz7zWHiLYRiMHz/+FwJZlkVaWhqPQLPZjK1bt3r1OcgwDBYvXizwVKutrcXHH3+MlpaWYeetRj8XCvv444/7dYfU6XQ8Cz3LMAwyMjIE6qeCggKvJhDo9SxftGgRfHx83O9xHId9+/bhww8/HFbqNSJCe3s7Xn31VRQXF/e7Q6SlpfEt9EREdXV1FB4ezgvVCg0NpZMnT3p1xCvHcVRXV0fZ2dmC0PHg4GB6//33qbOz83o3k4iIOjs7afny5YK0nn2fVatW8TJEgqg3Pn7atGmCWLR33nnH69NJOhwO+vrrr2nUqFGCgNC4uDh6//33r3vMY1tbG61evbrfrByuR61WU1FREW9Rgag3sH7lypWCFCKZmZlDVrTpWqK9vZ3ef/99CgkJEQSEjhw5ktauXXtNYv37wul0UkNDAy1fvpwiIiIGJA8ApaenU2trK+833DHye/bsEWyjOp2ODh486PW5sDmOo4aGBlq5ciXp9XoBiUlJSfS3v/2NDAbDNSPRZrPRrl276PHHH/eYuKG/7dNisfB+x51mxGg00qxZswT5SZ5++mnBl7wRHMdReXk5zZ07V5DMQSQSUVRUFD333HO0b9++Ia024zqX161bR3fccQf5+fldUp65oKAgj0lg3QTa7XbavHkz+fr68r4YGRlJJ06c8PqYc6LeWb9nzx66++67BQncXelTMjMz6e9//zsdOXJkUJMluHaB3NxcWrRoESUlJXksjimRSAS5tAHQ7Nmz6fz584Lf5aXaqq2tpfHjxwsy5q1cufKGSWxutVpp79699MADDwgSBzEMQ1KplCIjIyk7O5veeOMNKioquioiOY6j2tpa2rBhAz300EOUmppKOp1OULKIYRjy9/en9PR0wQ4hk8lo586dHtvBS3ZnsVjwl7/8BWvXruVpwKOiovDjjz+ir+XCW2Gz2VBdXY2cnBysWbMG7e3tgkzCYrEYwcHB7uSzaWlpSE5ORkpKCu9e2R/OnDmD0tJSHDp0CGVlZaiurkZDQwMsFgucTqfAPJSQkIAFCxagpKQEeXl5vPGfOHEitmzZgr62W6BPtkIiwv79+7FkyRKcOnXqlyBClsVf//pXvPDCC17tctgXBoMBu3fvxptvvonq6mpBZguGYcCyLJRKJfz8/KDX6+Hv74+QkBD4+/u7XzMMA7PZjObmZnc9+tbWVhiNRrS0tKCjowMcx3mMw3Qp3h944AE0Nzfj5Zdf5rlQSCQSrFy5Es899xyUSqWwE32XZGdnJz3xxBOCLEFxcXF08OBBr77Ye0JXVxfl5+fTCy+8QJGRkR6Lm6DPVqdQKMjX15eCg4MpKiqKoqOjKSIigvz9/S8p+a1IJCKdTkczZsyg9957j06ePEmdnZ107733CpItpaWlUVlZWb83AQGBHMfRDz/8ILj4SqVSeuGFF27ItMd2u53q6upo8+bN9MQTT1B8fDxpNJpBz0Isk8koNDSUpk+fTqtXr6affvqJWltbyel0Uk5OjkALo1KpaNWqVYL0WhdC4MHLMAzGjh2LrKws1NfXo6urC0BvzPnWrVsxadIkTJ8+3audf/tCLBYjIiIC/v7+GDt2LKZOnYoTJ06guLgYR48eRVNT04CZiS/22wEBAQgMDERqaiomTpyIcePGISwsDAEBAWBZFtXV1Vi7di0vS7LLyDBz5swBI6U9sqDRaNzp8F02Kfo5k/q6deswatQoxMTE3BACzYVQKBSIjo5GSEgIJk6ciLvvvhunTp1CfX09Dhw4gLNnz6Krqwutra1wOBzo6uri+Wv6+PhAKpXCx8cHarUaAQEBmDRpEkaMGIGwsDBER0cjKCgIGo3GbU2w2+3YtGkT+iab8PPzw3333ccz3nqCRwIZhsHo0aMxa9Ys1NbWun0q7XY7CgsL8c033+BPf/rTsMncNJhgGAYKhQIKhQJ+fn6Ii4uD1WpFdnY2Wltb0dXVhba2NnedjAsJVKlUkMlkUKlUUKlU0Ov1iI6OhlKphEwmE8RtcByH7777Djk5OTwBSiqVYubMmRddfQCEQowLHMdRVVUVzZw5k6fJF4lENHbsWNq2bZvXZwW8HDidTurp6SGz2UxdXV3U2dlJbW1tdP78effT0dFBnZ2d1N3dTRaL5aLpOE+ePEn33HOPoKRfTEwM7dix45LGd8DaSU6nk7Zs2ULh4eG8A10ul9Pdd99N+/fv/61a5xWio6ODli9fTv7+/jzBRaPR0LJly6ilpeWStF8XLT/X1tZGzz77LMlkMp4o7Sri6ykN8G8YGFarlT7++GNKSEjgaWQkEglNmjSJDh06dMkGhEsqAHn69GmaMGECbxUyDEPBwcH05ptvDijm/gY+nE4nffHFFzRu3DiPRubc3NzLsk9eEoEcx9G3334rMDexLEsxMTH0wQcf/CrrxV8uHA4H5eXl0ZQpU0gul7vHkmEYUqlU9Morr5DRaLysHe2Sa+h2d3fTmjVrSKfTCTQTUVFRtHbt2hvC7DRUsNvttH37dsrMzBSUcBCLxfSHP/yBamtrL1vTdVllyFtaWmj58uUCEgFQYmIi5ebm/kaiB9hsNtqxYwdlZmYKVJQsy9Ktt95Khw4duiI15WXXka+traUnn3ySdDodbxaJRCJKTU2ltWvX/radXgAXeXfccYdAzyoSiSgpKYny8vKu2Fx3WQQS9ZJYUVFBTz75JPn6+gpIjI6OpjVr1vwm2FCvtLl9+/Z+yRs9ejR99tlnVzXhL5tAol5J6tSpU/T0008LSMTPlov33nuPWltbf7VXDKvVSuvXr6eMjAyP5KWlpVFOTs5V17m4IgKJekksLy+np556SkCiy9vrlVdeodOnT//qLvvt7e304YcfUkpKikDL4tJk5ebmDkqRkismkOgXEpcuXSo4E1mWpYiICHrwwQdpx44dN6QZqi+cTidVVVXRqlWrKDExUWDbc5G3adOmQaswc1UEuhrtIlGj0QiuGBqNhiZPnkxr166l6urqG84g7ILZbKavvvqKHn74YYqMjBT4vMjlcpowYcKgrTwXrppAol4SKysradmyZR5JlMlklJCQQA8//DDt3r37hnGQIuq9nB8/fpxef/11uu2220ir1QoMwQqFgu666y7avn37oDsQDwqBRL9UQHvnnXc83hNFIhFpNBq6/fbbafXq1XTs2DGvdxi2Wq3073//m+bMmUNRUVEklUo9lsd76qmnqKioiLq7uwddqBs0Al0wGo20ceNGGjt2rMBVn2EYkkgkFBYWRpmZmfT2229TfX29V22rHMe54y0ef/xxSkxMJKVSKVh1IpGIgoOD6bXXXqOqqqohm6yDTiBRr9pt//79tGTJEtLr9YLDnGEYEolEFB4eTnfddRe99957VF1dTQ6HY1heO1ylYh0OB23ZsoUWLVpEycnJpFarBcS59Jp33nknff755wNWoB4M8NwKBxNEhDNnziAvLw87duxAYWEhTCaTwK+EZVmEhYUhJSUFGRkZmDFjBmJjYyEWi8Gy7HV12yAiOBwO1NbWYt++fdi/fz/279/fbwi6XC5HSEgI7r33XsybNw/JyclDnvl/yAgE4A5arKqqwqZNm7Bz50536fK+kEgkCAwMREJCAkaPHo1x48YhPT0dAQEBkEqlEIlE14RMp9MJh8MBu92OiooK7N69G3v37kVFRQUaGhpgNpsFQaEikQiBgYGYOnUqsrOzkZ6ejoiIiGuSd3VICXTB6XSirq4OxcXF2LlzJ/bv34/a2lqPUagikQg+Pj4IDAxEYmKi+8nMzIRGo4FMJhvUlJgusmw2Gzo6OnDw4EFUVla6n9OnT8NoNPbbVr1ej4kTJyIrKwsZGRkYMWKEIMf1UOKaEAj0rkaz2Yz6+nocOXIE27dvx4EDB3D69Ol+3fWkUik0Gg10Oh2io6MRFRWF8PBwxMbGYty4cW4yJRIJxGKxO9Vyf3CR5fprtVpx4MAB1NfXo7GxEbW1taisrER7ezs6OjpgsVg8to1lWfj6+iI9PR1ZWVmYMGECoqOjodVqr3m242tGoAsuImtra3Hy5Els3rzZHTswUOYIlmWhVquhUqnctRR8fHyg1Wqh0WigUqmgVqsHXJnd3d3o6uqCyWSC2WxGS0sL6uvr3a/NZjN6enoGbH9oaCjS0tIwa9Ys3HzzzYiJiYFGo7luJYquOYEu0M+Ju0+fPo2amhpUVlZi69atOHXqFK8+Xn9wBaBIpdIrWoEOh+OSnXWVSiUiIyMxduxYzJgxAyNHjkRCQgJUKtV1ry113Qh0geM42O12mM1mnDp1ChUVFfjhhx9QXl6O8vLy65avRi6XIyIiAqmpqcjKykJkZCRGjBiByMhIyGSy606cC9edwAvhdDphNpvR0NAAo9GI8vJylJaWoqKiAhUVFairqxuy3C4sy0Kr1SIuLg7x8fGYMGEC4uLiEBISgsjISMjlcojF4mHnjT6sCHSBfs7b3d3djfPnz7ufjo4OtwTb2NiIs2fPoqWl5YoS2IWHh0Ov1yM8PBwxMTEYOXIkYmNj3WFkwcHBUKvV1/0uejEMSwL7wtVEIkJDQwM6OzvR3d0Nk8kEi8UCu90Oo9F40RpJCoUC4eHh7vgFuVzuFoR0Oh2vzNtwJu1C/D+aFVk4TP4AAAACSURBVIH86miqhwAAAABJRU5ErkJggg==;" vertex="1" parent="1">
          <mxGeometry x="595" y="1012.3199999999999" width="40.31" height="39.23" as="geometry" />
        </mxCell>
        <mxCell id="E94o1vfJvXE0FjkTLuiu-106" value="&lt;b&gt;&lt;font style=&quot;font-size: 23px&quot;&gt;...&lt;/font&gt;&lt;/b&gt;" style="text;html=1;strokeColor=none;fillColor=none;align=center;verticalAlign=middle;whiteSpace=wrap;rounded=0;" vertex="1" parent="1">
          <mxGeometry x="365" y="1060" width="60" height="30" as="geometry" />
        </mxCell>
        <mxCell id="E94o1vfJvXE0FjkTLuiu-107" value="" style="rounded=0;whiteSpace=wrap;html=1;fontSize=23;strokeWidth=1;fillColor=#dae8fc;strokeColor=#6c8ebf;" vertex="1" parent="1">
          <mxGeometry x="55" y="100" width="25" height="10" as="geometry" />
        </mxCell>
        <mxCell id="E94o1vfJvXE0FjkTLuiu-146" style="edgeStyle=none;rounded=0;orthogonalLoop=1;jettySize=auto;html=1;exitX=0.5;exitY=1;exitDx=0;exitDy=0;entryX=0.5;entryY=0;entryDx=0;entryDy=0;fontSize=23;fontColor=#000000;strokeWidth=1;endArrow=openThin;endFill=0;" edge="1" parent="1" source="E94o1vfJvXE0FjkTLuiu-110" target="E94o1vfJvXE0FjkTLuiu-130">
          <mxGeometry relative="1" as="geometry" />
        </mxCell>
        <mxCell id="E94o1vfJvXE0FjkTLuiu-110" value="" style="rounded=0;whiteSpace=wrap;html=1;fontSize=23;strokeWidth=1;fillColor=#dae8fc;strokeColor=#6c8ebf;" vertex="1" parent="1">
          <mxGeometry x="87.5" y="100" width="25" height="10" as="geometry" />
        </mxCell>
        <mxCell id="E94o1vfJvXE0FjkTLuiu-113" value="" style="rounded=0;whiteSpace=wrap;html=1;fontSize=23;strokeWidth=1;fillColor=#dae8fc;strokeColor=#6c8ebf;" vertex="1" parent="1">
          <mxGeometry x="120" y="100" width="25" height="10" as="geometry" />
        </mxCell>
        <mxCell id="E94o1vfJvXE0FjkTLuiu-120" value="" style="rounded=0;whiteSpace=wrap;html=1;fontSize=23;strokeWidth=1;fillColor=#dae8fc;strokeColor=#6c8ebf;" vertex="1" parent="1">
          <mxGeometry x="180.15" y="100" width="25" height="10" as="geometry" />
        </mxCell>
        <mxCell id="E94o1vfJvXE0FjkTLuiu-145" style="edgeStyle=none;rounded=0;orthogonalLoop=1;jettySize=auto;html=1;exitX=0.5;exitY=1;exitDx=0;exitDy=0;entryX=0.5;entryY=0;entryDx=0;entryDy=0;fontSize=23;fontColor=#000000;endArrow=openThin;endFill=0;" edge="1" parent="1" source="E94o1vfJvXE0FjkTLuiu-121" target="E94o1vfJvXE0FjkTLuiu-130">
          <mxGeometry relative="1" as="geometry" />
        </mxCell>
        <mxCell id="E94o1vfJvXE0FjkTLuiu-121" value="" style="rounded=0;whiteSpace=wrap;html=1;fontSize=23;strokeWidth=1;fillColor=#dae8fc;strokeColor=#6c8ebf;" vertex="1" parent="1">
          <mxGeometry x="212.65" y="100" width="25" height="10" as="geometry" />
        </mxCell>
        <mxCell id="E94o1vfJvXE0FjkTLuiu-122" value="" style="rounded=0;whiteSpace=wrap;html=1;fontSize=23;strokeWidth=1;fillColor=#dae8fc;strokeColor=#6c8ebf;" vertex="1" parent="1">
          <mxGeometry x="245.15" y="100" width="25" height="10" as="geometry" />
        </mxCell>
        <mxCell id="E94o1vfJvXE0FjkTLuiu-123" value="" style="rounded=0;whiteSpace=wrap;html=1;fontSize=23;strokeWidth=1;fillColor=#dae8fc;strokeColor=#6c8ebf;" vertex="1" parent="1">
          <mxGeometry x="310" y="100" width="25" height="10" as="geometry" />
        </mxCell>
        <mxCell id="E94o1vfJvXE0FjkTLuiu-160" style="edgeStyle=none;rounded=0;orthogonalLoop=1;jettySize=auto;html=1;exitX=0.5;exitY=1;exitDx=0;exitDy=0;fontSize=23;fontColor=#000000;endArrow=openThin;endFill=0;strokeWidth=1;" edge="1" parent="1" source="E94o1vfJvXE0FjkTLuiu-124">
          <mxGeometry relative="1" as="geometry">
            <mxPoint x="355" y="230" as="targetPoint" />
          </mxGeometry>
        </mxCell>
        <mxCell id="E94o1vfJvXE0FjkTLuiu-124" value="" style="rounded=0;whiteSpace=wrap;html=1;fontSize=23;strokeWidth=1;fillColor=#dae8fc;strokeColor=#6c8ebf;" vertex="1" parent="1">
          <mxGeometry x="342.5" y="100" width="25" height="10" as="geometry" />
        </mxCell>
        <mxCell id="E94o1vfJvXE0FjkTLuiu-125" value="" style="rounded=0;whiteSpace=wrap;html=1;fontSize=23;strokeWidth=1;fillColor=#dae8fc;strokeColor=#6c8ebf;" vertex="1" parent="1">
          <mxGeometry x="375" y="100" width="25" height="10" as="geometry" />
        </mxCell>
        <mxCell id="E94o1vfJvXE0FjkTLuiu-126" value="" style="rounded=0;whiteSpace=wrap;html=1;fontSize=23;strokeWidth=1;fillColor=#dae8fc;strokeColor=#6c8ebf;" vertex="1" parent="1">
          <mxGeometry x="510" y="100" width="25" height="10" as="geometry" />
        </mxCell>
        <mxCell id="E94o1vfJvXE0FjkTLuiu-191" style="edgeStyle=none;rounded=0;orthogonalLoop=1;jettySize=auto;html=1;exitX=0.5;exitY=1;exitDx=0;exitDy=0;entryX=0.5;entryY=0;entryDx=0;entryDy=0;fontSize=23;fontColor=#000000;endArrow=openThin;endFill=0;strokeWidth=1;" edge="1" parent="1" source="E94o1vfJvXE0FjkTLuiu-127" target="E94o1vfJvXE0FjkTLuiu-189">
          <mxGeometry relative="1" as="geometry" />
        </mxCell>
        <mxCell id="E94o1vfJvXE0FjkTLuiu-127" value="" style="rounded=0;whiteSpace=wrap;html=1;fontSize=23;strokeWidth=1;fillColor=#dae8fc;strokeColor=#6c8ebf;" vertex="1" parent="1">
          <mxGeometry x="542.5" y="100" width="25" height="10" as="geometry" />
        </mxCell>
        <mxCell id="E94o1vfJvXE0FjkTLuiu-128" value="" style="rounded=0;whiteSpace=wrap;html=1;fontSize=23;strokeWidth=1;fillColor=#dae8fc;strokeColor=#6c8ebf;" vertex="1" parent="1">
          <mxGeometry x="575" y="100" width="25" height="10" as="geometry" />
        </mxCell>
        <mxCell id="E94o1vfJvXE0FjkTLuiu-129" value="" style="rounded=0;whiteSpace=wrap;html=1;fontSize=23;fontColor=#ffffff;strokeWidth=1;fillColor=#1ba1e2;strokeColor=#006EAF;" vertex="1" parent="1">
          <mxGeometry x="180.15" y="170" width="25" height="10" as="geometry" />
        </mxCell>
        <mxCell id="E94o1vfJvXE0FjkTLuiu-147" style="edgeStyle=none;rounded=0;orthogonalLoop=1;jettySize=auto;html=1;exitX=0.5;exitY=1;exitDx=0;exitDy=0;entryX=0.5;entryY=0;entryDx=0;entryDy=0;fontSize=23;fontColor=#000000;endArrow=openThin;endFill=0;" edge="1" parent="1" source="E94o1vfJvXE0FjkTLuiu-130" target="E94o1vfJvXE0FjkTLuiu-139">
          <mxGeometry relative="1" as="geometry" />
        </mxCell>
        <mxCell id="E94o1vfJvXE0FjkTLuiu-149" style="edgeStyle=none;rounded=0;orthogonalLoop=1;jettySize=auto;html=1;exitX=0.5;exitY=1;exitDx=0;exitDy=0;entryX=0.5;entryY=0;entryDx=0;entryDy=0;fontSize=23;fontColor=#000000;endArrow=openThin;endFill=0;" edge="1" parent="1" source="E94o1vfJvXE0FjkTLuiu-130" target="E94o1vfJvXE0FjkTLuiu-142">
          <mxGeometry relative="1" as="geometry" />
        </mxCell>
        <mxCell id="E94o1vfJvXE0FjkTLuiu-159" style="edgeStyle=none;rounded=0;orthogonalLoop=1;jettySize=auto;html=1;exitX=0.5;exitY=1;exitDx=0;exitDy=0;entryX=0.5;entryY=0;entryDx=0;entryDy=0;fontSize=23;fontColor=#000000;endArrow=openThin;endFill=0;strokeWidth=1;" edge="1" parent="1" source="E94o1vfJvXE0FjkTLuiu-130" target="E94o1vfJvXE0FjkTLuiu-151">
          <mxGeometry relative="1" as="geometry" />
        </mxCell>
        <mxCell id="E94o1vfJvXE0FjkTLuiu-130" value="" style="rounded=0;whiteSpace=wrap;html=1;fontSize=23;fontColor=#ffffff;strokeWidth=1;fillColor=#1ba1e2;strokeColor=#006EAF;" vertex="1" parent="1">
          <mxGeometry x="212.65" y="170" width="25" height="10" as="geometry" />
        </mxCell>
        <mxCell id="E94o1vfJvXE0FjkTLuiu-131" value="" style="rounded=0;whiteSpace=wrap;html=1;fontSize=23;fontColor=#ffffff;strokeWidth=1;fillColor=#1ba1e2;strokeColor=#006EAF;" vertex="1" parent="1">
          <mxGeometry x="245.15" y="170" width="25" height="10" as="geometry" />
        </mxCell>
        <mxCell id="E94o1vfJvXE0FjkTLuiu-138" value="" style="rounded=0;whiteSpace=wrap;html=1;fontSize=23;strokeWidth=1;fillColor=#ffe6cc;strokeColor=#d79b00;" vertex="1" parent="1">
          <mxGeometry x="60" y="230" width="25" height="10" as="geometry" />
        </mxCell>
        <mxCell id="E94o1vfJvXE0FjkTLuiu-139" value="" style="rounded=0;whiteSpace=wrap;html=1;fontSize=23;strokeWidth=1;fillColor=#ffe6cc;strokeColor=#d79b00;" vertex="1" parent="1">
          <mxGeometry x="92.5" y="230" width="25" height="10" as="geometry" />
        </mxCell>
        <mxCell id="E94o1vfJvXE0FjkTLuiu-140" value="" style="rounded=0;whiteSpace=wrap;html=1;fontSize=23;strokeWidth=1;fillColor=#ffe6cc;strokeColor=#d79b00;" vertex="1" parent="1">
          <mxGeometry x="125" y="230" width="25" height="10" as="geometry" />
        </mxCell>
        <mxCell id="E94o1vfJvXE0FjkTLuiu-141" value="" style="rounded=0;whiteSpace=wrap;html=1;fontSize=23;strokeWidth=1;fillColor=#ffe6cc;strokeColor=#d79b00;" vertex="1" parent="1">
          <mxGeometry x="180.15" y="230" width="25" height="10" as="geometry" />
        </mxCell>
        <mxCell id="E94o1vfJvXE0FjkTLuiu-142" value="" style="rounded=0;whiteSpace=wrap;html=1;fontSize=23;strokeWidth=1;fillColor=#ffe6cc;strokeColor=#d79b00;" vertex="1" parent="1">
          <mxGeometry x="212.65" y="230" width="25" height="10" as="geometry" />
        </mxCell>
        <mxCell id="E94o1vfJvXE0FjkTLuiu-143" value="" style="rounded=0;whiteSpace=wrap;html=1;fontSize=23;strokeWidth=1;fillColor=#ffe6cc;strokeColor=#d79b00;" vertex="1" parent="1">
          <mxGeometry x="245.15" y="230" width="25" height="10" as="geometry" />
        </mxCell>
        <mxCell id="E94o1vfJvXE0FjkTLuiu-150" value="" style="rounded=0;whiteSpace=wrap;html=1;fontSize=23;fontColor=#ffffff;strokeWidth=1;fillColor=#1ba1e2;strokeColor=#006EAF;" vertex="1" parent="1">
          <mxGeometry x="310" y="230" width="25" height="10" as="geometry" />
        </mxCell>
        <mxCell id="E94o1vfJvXE0FjkTLuiu-161" style="edgeStyle=none;rounded=0;orthogonalLoop=1;jettySize=auto;html=1;exitX=0.5;exitY=1;exitDx=0;exitDy=0;entryX=0.5;entryY=0;entryDx=0;entryDy=0;fontSize=23;fontColor=#000000;endArrow=openThin;endFill=0;strokeWidth=1;" edge="1" parent="1" source="E94o1vfJvXE0FjkTLuiu-151" target="E94o1vfJvXE0FjkTLuiu-157">
          <mxGeometry relative="1" as="geometry" />
        </mxCell>
        <mxCell id="E94o1vfJvXE0FjkTLuiu-162" style="edgeStyle=none;rounded=0;orthogonalLoop=1;jettySize=auto;html=1;exitX=0.5;exitY=1;exitDx=0;exitDy=0;entryX=0.5;entryY=0;entryDx=0;entryDy=0;fontSize=23;fontColor=#000000;endArrow=openThin;endFill=0;strokeWidth=1;" edge="1" parent="1" source="E94o1vfJvXE0FjkTLuiu-151" target="E94o1vfJvXE0FjkTLuiu-154">
          <mxGeometry relative="1" as="geometry" />
        </mxCell>
        <mxCell id="E94o1vfJvXE0FjkTLuiu-186" style="edgeStyle=none;rounded=0;orthogonalLoop=1;jettySize=auto;html=1;exitX=0.75;exitY=1;exitDx=0;exitDy=0;fontSize=23;fontColor=#000000;endArrow=none;endFill=0;strokeWidth=1;entryX=0;entryY=0.25;entryDx=0;entryDy=0;" edge="1" parent="1" source="E94o1vfJvXE0FjkTLuiu-151" target="E94o1vfJvXE0FjkTLuiu-180">
          <mxGeometry relative="1" as="geometry">
            <mxPoint x="420" y="260" as="targetPoint" />
          </mxGeometry>
        </mxCell>
        <mxCell id="E94o1vfJvXE0FjkTLuiu-151" value="" style="rounded=0;whiteSpace=wrap;html=1;fontSize=23;fontColor=#ffffff;strokeWidth=1;fillColor=#1ba1e2;strokeColor=#006EAF;" vertex="1" parent="1">
          <mxGeometry x="342.5" y="230" width="25" height="10" as="geometry" />
        </mxCell>
        <mxCell id="E94o1vfJvXE0FjkTLuiu-152" value="" style="rounded=0;whiteSpace=wrap;html=1;fontSize=23;fontColor=#ffffff;strokeWidth=1;fillColor=#1ba1e2;strokeColor=#006EAF;" vertex="1" parent="1">
          <mxGeometry x="375" y="230" width="25" height="10" as="geometry" />
        </mxCell>
        <mxCell id="E94o1vfJvXE0FjkTLuiu-153" value="" style="rounded=0;whiteSpace=wrap;html=1;fontSize=23;strokeWidth=1;fillColor=#ffe6cc;strokeColor=#d79b00;" vertex="1" parent="1">
          <mxGeometry x="310" y="290" width="25" height="10" as="geometry" />
        </mxCell>
        <mxCell id="E94o1vfJvXE0FjkTLuiu-154" value="" style="rounded=0;whiteSpace=wrap;html=1;fontSize=23;strokeWidth=1;fillColor=#ffe6cc;strokeColor=#d79b00;" vertex="1" parent="1">
          <mxGeometry x="342.5" y="290" width="25" height="10" as="geometry" />
        </mxCell>
        <mxCell id="E94o1vfJvXE0FjkTLuiu-155" value="" style="rounded=0;whiteSpace=wrap;html=1;fontSize=23;strokeWidth=1;fillColor=#ffe6cc;strokeColor=#d79b00;" vertex="1" parent="1">
          <mxGeometry x="375" y="290" width="25" height="10" as="geometry" />
        </mxCell>
        <mxCell id="E94o1vfJvXE0FjkTLuiu-156" value="" style="rounded=0;whiteSpace=wrap;html=1;fontSize=23;strokeWidth=1;fillColor=#ffe6cc;strokeColor=#d79b00;" vertex="1" parent="1">
          <mxGeometry x="180.15" y="290" width="25" height="10" as="geometry" />
        </mxCell>
        <mxCell id="E94o1vfJvXE0FjkTLuiu-157" value="" style="rounded=0;whiteSpace=wrap;html=1;fontSize=23;strokeWidth=1;fillColor=#ffe6cc;strokeColor=#d79b00;" vertex="1" parent="1">
          <mxGeometry x="212.65" y="290" width="25" height="10" as="geometry" />
        </mxCell>
        <mxCell id="E94o1vfJvXE0FjkTLuiu-158" value="" style="rounded=0;whiteSpace=wrap;html=1;fontSize=23;strokeWidth=1;fillColor=#ffe6cc;strokeColor=#d79b00;" vertex="1" parent="1">
          <mxGeometry x="245.15" y="290" width="25" height="10" as="geometry" />
        </mxCell>
        <mxCell id="E94o1vfJvXE0FjkTLuiu-180" value="..." style="text;html=1;strokeColor=none;fillColor=none;align=center;verticalAlign=middle;whiteSpace=wrap;rounded=0;fontSize=23;fontColor=#000000;" vertex="1" parent="1">
          <mxGeometry x="430" y="260" width="10" height="10" as="geometry" />
        </mxCell>
        <mxCell id="E94o1vfJvXE0FjkTLuiu-181" value="..." style="text;html=1;strokeColor=none;fillColor=none;align=center;verticalAlign=middle;whiteSpace=wrap;rounded=0;fontSize=23;fontColor=#000000;" vertex="1" parent="1">
          <mxGeometry x="450" y="90" width="10" height="10" as="geometry" />
        </mxCell>
        <mxCell id="E94o1vfJvXE0FjkTLuiu-187" value="" style="endArrow=openThin;html=1;rounded=0;fontSize=23;fontColor=#000000;strokeWidth=1;entryX=0.5;entryY=0;entryDx=0;entryDy=0;endFill=0;" edge="1" parent="1" target="E94o1vfJvXE0FjkTLuiu-189">
          <mxGeometry width="50" height="50" relative="1" as="geometry">
            <mxPoint x="440" y="280" as="sourcePoint" />
            <mxPoint x="500" y="300" as="targetPoint" />
            <Array as="points" />
          </mxGeometry>
        </mxCell>
        <mxCell id="E94o1vfJvXE0FjkTLuiu-188" value="" style="rounded=0;whiteSpace=wrap;html=1;fontSize=23;fontColor=#ffffff;strokeWidth=1;fillColor=#1ba1e2;strokeColor=#006EAF;" vertex="1" parent="1">
          <mxGeometry x="510" y="320" width="25" height="10" as="geometry" />
        </mxCell>
        <mxCell id="E94o1vfJvXE0FjkTLuiu-198" style="edgeStyle=none;rounded=0;orthogonalLoop=1;jettySize=auto;html=1;exitX=0.5;exitY=1;exitDx=0;exitDy=0;entryX=0.5;entryY=0;entryDx=0;entryDy=0;fontSize=23;fontColor=#000000;endArrow=openThin;endFill=0;strokeWidth=1;" edge="1" parent="1" source="E94o1vfJvXE0FjkTLuiu-189" target="E94o1vfJvXE0FjkTLuiu-196">
          <mxGeometry relative="1" as="geometry" />
        </mxCell>
        <mxCell id="E94o1vfJvXE0FjkTLuiu-199" style="edgeStyle=none;rounded=0;orthogonalLoop=1;jettySize=auto;html=1;exitX=0.5;exitY=1;exitDx=0;exitDy=0;entryX=0.5;entryY=0;entryDx=0;entryDy=0;fontSize=23;fontColor=#000000;endArrow=openThin;endFill=0;strokeWidth=1;" edge="1" parent="1" source="E94o1vfJvXE0FjkTLuiu-189" target="E94o1vfJvXE0FjkTLuiu-193">
          <mxGeometry relative="1" as="geometry" />
        </mxCell>
        <mxCell id="E94o1vfJvXE0FjkTLuiu-189" value="" style="rounded=0;whiteSpace=wrap;html=1;fontSize=23;fontColor=#ffffff;strokeWidth=1;fillColor=#1ba1e2;strokeColor=#006EAF;" vertex="1" parent="1">
          <mxGeometry x="542.5" y="320" width="25" height="10" as="geometry" />
        </mxCell>
        <mxCell id="E94o1vfJvXE0FjkTLuiu-190" value="" style="rounded=0;whiteSpace=wrap;html=1;fontSize=23;fontColor=#ffffff;strokeWidth=1;fillColor=#1ba1e2;strokeColor=#006EAF;" vertex="1" parent="1">
          <mxGeometry x="575" y="320" width="25" height="10" as="geometry" />
        </mxCell>
        <mxCell id="E94o1vfJvXE0FjkTLuiu-192" value="" style="rounded=0;whiteSpace=wrap;html=1;fontSize=23;strokeWidth=1;fillColor=#ffe6cc;strokeColor=#d79b00;" vertex="1" parent="1">
          <mxGeometry x="510" y="380" width="25" height="10" as="geometry" />
        </mxCell>
        <mxCell id="E94o1vfJvXE0FjkTLuiu-193" value="" style="rounded=0;whiteSpace=wrap;html=1;fontSize=23;strokeWidth=1;fillColor=#ffe6cc;strokeColor=#d79b00;" vertex="1" parent="1">
          <mxGeometry x="542.5" y="380" width="25" height="10" as="geometry" />
        </mxCell>
        <mxCell id="E94o1vfJvXE0FjkTLuiu-194" value="" style="rounded=0;whiteSpace=wrap;html=1;fontSize=23;strokeWidth=1;fillColor=#ffe6cc;strokeColor=#d79b00;" vertex="1" parent="1">
          <mxGeometry x="575" y="380" width="25" height="10" as="geometry" />
        </mxCell>
        <mxCell id="E94o1vfJvXE0FjkTLuiu-195" value="" style="rounded=0;whiteSpace=wrap;html=1;fontSize=23;strokeWidth=1;fillColor=#ffe6cc;strokeColor=#d79b00;" vertex="1" parent="1">
          <mxGeometry x="380" y="380" width="25" height="10" as="geometry" />
        </mxCell>
        <mxCell id="E94o1vfJvXE0FjkTLuiu-196" value="" style="rounded=0;whiteSpace=wrap;html=1;fontSize=23;strokeWidth=1;fillColor=#ffe6cc;strokeColor=#d79b00;" vertex="1" parent="1">
          <mxGeometry x="412.5" y="380" width="25" height="10" as="geometry" />
        </mxCell>
        <mxCell id="E94o1vfJvXE0FjkTLuiu-197" value="" style="rounded=0;whiteSpace=wrap;html=1;fontSize=23;strokeWidth=1;fillColor=#ffe6cc;strokeColor=#d79b00;" vertex="1" parent="1">
          <mxGeometry x="445" y="380" width="25" height="10" as="geometry" />
        </mxCell>
        <mxCell id="E94o1vfJvXE0FjkTLuiu-200" value="&lt;font style=&quot;font-size: 11px&quot;&gt;&lt;b&gt;x&lt;sub style=&quot;font-size: 11px&quot;&gt;1&lt;/sub&gt;&lt;/b&gt;&lt;/font&gt;" style="text;html=1;strokeColor=none;fillColor=none;align=center;verticalAlign=middle;whiteSpace=wrap;rounded=0;fontSize=23;fontColor=#000000;" vertex="1" parent="1">
          <mxGeometry x="72.5" y="70" width="55" height="30" as="geometry" />
        </mxCell>
        <mxCell id="E94o1vfJvXE0FjkTLuiu-201" value="&lt;font style=&quot;font-size: 11px&quot;&gt;&lt;b&gt;x&lt;sub style=&quot;font-size: 11px&quot;&gt;2&lt;/sub&gt;&lt;/b&gt;&lt;/font&gt;" style="text;html=1;strokeColor=none;fillColor=none;align=center;verticalAlign=middle;whiteSpace=wrap;rounded=0;fontSize=23;fontColor=#000000;" vertex="1" parent="1">
          <mxGeometry x="197.65" y="70" width="55" height="30" as="geometry" />
        </mxCell>
        <mxCell id="E94o1vfJvXE0FjkTLuiu-202" value="&lt;font style=&quot;font-size: 11px&quot;&gt;&lt;b&gt;x3&lt;/b&gt;&lt;/font&gt;" style="text;html=1;strokeColor=none;fillColor=none;align=center;verticalAlign=middle;whiteSpace=wrap;rounded=0;fontSize=23;fontColor=#000000;" vertex="1" parent="1">
          <mxGeometry x="327.5" y="70" width="55" height="30" as="geometry" />
        </mxCell>
        <mxCell id="E94o1vfJvXE0FjkTLuiu-203" value="&lt;font style=&quot;font-size: 11px&quot;&gt;&lt;b&gt;x&lt;sub style=&quot;font-size: 11px&quot;&gt;m&lt;/sub&gt;&lt;/b&gt;&lt;/font&gt;" style="text;html=1;strokeColor=none;fillColor=none;align=center;verticalAlign=middle;whiteSpace=wrap;rounded=0;fontSize=23;fontColor=#000000;" vertex="1" parent="1">
          <mxGeometry x="527.5" y="70" width="55" height="30" as="geometry" />
        </mxCell>
        <mxCell id="E94o1vfJvXE0FjkTLuiu-204" value="&lt;font style=&quot;font-size: 11px&quot;&gt;&lt;b&gt;y&lt;sub style=&quot;font-size: 11px&quot;&gt;1&lt;/sub&gt;&lt;/b&gt;&lt;/font&gt;" style="text;html=1;strokeColor=none;fillColor=none;align=center;verticalAlign=middle;whiteSpace=wrap;rounded=0;fontSize=23;fontColor=#000000;" vertex="1" parent="1">
          <mxGeometry x="255" y="150" width="55" height="30" as="geometry" />
        </mxCell>
        <mxCell id="E94o1vfJvXE0FjkTLuiu-205" value="&lt;font style=&quot;font-size: 11px&quot;&gt;&lt;b&gt;y&lt;sub style=&quot;font-size: 11px&quot;&gt;2&lt;/sub&gt;&lt;/b&gt;&lt;/font&gt;" style="text;html=1;strokeColor=none;fillColor=none;align=center;verticalAlign=middle;whiteSpace=wrap;rounded=0;fontSize=23;fontColor=#000000;" vertex="1" parent="1">
          <mxGeometry x="386" y="210" width="55" height="30" as="geometry" />
        </mxCell>
        <mxCell id="E94o1vfJvXE0FjkTLuiu-206" value="&lt;font style=&quot;font-size: 11px&quot;&gt;&lt;b&gt;y&lt;sub style=&quot;font-size: 11px&quot;&gt;m-1&lt;/sub&gt;&lt;/b&gt;&lt;/font&gt;" style="text;html=1;strokeColor=none;fillColor=none;align=center;verticalAlign=middle;whiteSpace=wrap;rounded=0;fontSize=23;fontColor=#000000;" vertex="1" parent="1">
          <mxGeometry x="587.65" y="300" width="55" height="30" as="geometry" />
        </mxCell>
        <mxCell id="E94o1vfJvXE0FjkTLuiu-209" value="&lt;font style=&quot;font-size: 11px&quot;&gt;&lt;b&gt;x&#39;&lt;sub style=&quot;font-size: 11px&quot;&gt;1&lt;/sub&gt;&lt;/b&gt;&lt;/font&gt;" style="text;html=1;strokeColor=none;fillColor=none;align=center;verticalAlign=middle;whiteSpace=wrap;rounded=0;fontSize=23;fontColor=#000000;" vertex="1" parent="1">
          <mxGeometry x="77.5" y="240" width="55" height="30" as="geometry" />
        </mxCell>
        <mxCell id="E94o1vfJvXE0FjkTLuiu-210" value="&lt;font style=&quot;font-size: 11px&quot;&gt;&lt;b&gt;x&#39;&lt;sub style=&quot;font-size: 11px&quot;&gt;2&lt;/sub&gt;&lt;/b&gt;&lt;/font&gt;" style="text;html=1;strokeColor=none;fillColor=none;align=center;verticalAlign=middle;whiteSpace=wrap;rounded=0;fontSize=23;fontColor=#000000;" vertex="1" parent="1">
          <mxGeometry x="197.66" y="240" width="55" height="30" as="geometry" />
        </mxCell>
        <mxCell id="E94o1vfJvXE0FjkTLuiu-211" value="&lt;font style=&quot;font-size: 11px&quot;&gt;&lt;b&gt;y&#39;&lt;sub style=&quot;font-size: 11px&quot;&gt;1&lt;/sub&gt;&lt;/b&gt;&lt;/font&gt;" style="text;html=1;strokeColor=none;fillColor=none;align=center;verticalAlign=middle;whiteSpace=wrap;rounded=0;fontSize=23;fontColor=#000000;" vertex="1" parent="1">
          <mxGeometry x="197.65" y="300" width="55" height="30" as="geometry" />
        </mxCell>
        <mxCell id="E94o1vfJvXE0FjkTLuiu-212" value="&lt;font style=&quot;font-size: 11px&quot;&gt;&lt;b&gt;x&#39;&lt;sub style=&quot;font-size: 11px&quot;&gt;3&lt;/sub&gt;&lt;/b&gt;&lt;/font&gt;" style="text;html=1;strokeColor=none;fillColor=none;align=center;verticalAlign=middle;whiteSpace=wrap;rounded=0;fontSize=23;fontColor=#000000;" vertex="1" parent="1">
          <mxGeometry x="325" y="300" width="55" height="30" as="geometry" />
        </mxCell>
        <mxCell id="E94o1vfJvXE0FjkTLuiu-213" value="&lt;font style=&quot;font-size: 11px&quot;&gt;&lt;b&gt;y&#39;&lt;sub style=&quot;font-size: 11px&quot;&gt;m-2&lt;/sub&gt;&lt;/b&gt;&lt;/font&gt;" style="text;html=1;strokeColor=none;fillColor=none;align=center;verticalAlign=middle;whiteSpace=wrap;rounded=0;fontSize=23;fontColor=#000000;" vertex="1" parent="1">
          <mxGeometry x="397.5" y="390" width="55" height="30" as="geometry" />
        </mxCell>
        <mxCell id="E94o1vfJvXE0FjkTLuiu-214" value="&lt;font style=&quot;font-size: 11px&quot;&gt;&lt;b&gt;x&#39;&lt;sub style=&quot;font-size: 11px&quot;&gt;m&lt;/sub&gt;&lt;/b&gt;&lt;/font&gt;" style="text;html=1;strokeColor=none;fillColor=none;align=center;verticalAlign=middle;whiteSpace=wrap;rounded=0;fontSize=23;fontColor=#000000;" vertex="1" parent="1">
          <mxGeometry x="527.5" y="390" width="55" height="30" as="geometry" />
        </mxCell>
        <mxCell id="E94o1vfJvXE0FjkTLuiu-217" value="&lt;font style=&quot;font-size: 16px&quot;&gt;&lt;b&gt;递归自动编码器RAE&lt;/b&gt;&lt;/font&gt;" style="text;html=1;strokeColor=none;fillColor=none;align=center;verticalAlign=middle;whiteSpace=wrap;rounded=0;fontSize=11;fontColor=#000000;" vertex="1" parent="1">
          <mxGeometry x="58.00000000000001" y="330" width="197" height="70" as="geometry" />
        </mxCell>
        <mxCell id="E94o1vfJvXE0FjkTLuiu-218" value="&lt;font style=&quot;font-size: 16px&quot;&gt;&lt;b&gt;对话摘要主题模型&lt;/b&gt;&lt;/font&gt;" style="text;html=1;strokeColor=none;fillColor=none;align=center;verticalAlign=middle;whiteSpace=wrap;rounded=0;fontSize=11;fontColor=#000000;" vertex="1" parent="1">
          <mxGeometry x="294" y="1110" width="197" height="70" as="geometry" />
        </mxCell>
      </root>
    </mxGraphModel>
  </diagram>
</mxfile>
